<svg width="14" height="14" viewBox="0 0 14 14" fill="none" xmlns="http://www.w3.org/2000/svg">
<path d="M0.5 5.10525C0.5 4.44589 0.501063 4.00188 0.545655 3.67041C0.588298 3.35342 0.662338 3.21507 0.754501 3.12291C0.846663 3.03075 0.985016 2.95671 1.30201 2.91406C1.63347 2.86947 2.07748 2.86841 2.73684 2.86841H10.9474C11.6067 2.86841 12.0507 2.86947 12.3822 2.91406C12.6992 2.95671 12.8375 3.03075 12.9297 3.12291C13.0219 3.21507 13.0959 3.35342 13.1386 3.67041C13.1831 4.00188 13.1842 4.44589 13.1842 5.10525C13.1842 5.17907 13.1842 5.23785 13.1832 5.28844C13.1326 5.28943 13.0738 5.28946 13 5.28946H0.684211C0.610387 5.28946 0.551606 5.28943 0.501022 5.28844C0.500026 5.23784 0.5 5.17906 0.5 5.10525Z" fill="#333333" stroke="#333333"/>
<path d="M0.754501 13.2455C0.662338 13.1533 0.588298 13.015 0.545655 12.698C0.501063 12.3665 0.5 11.9225 0.5 11.2632V7.84211C0.5 7.76829 0.500026 7.7095 0.501016 7.65892C0.551625 7.65792 0.610404 7.6579 0.684211 7.6579H13C13.0738 7.6579 13.1326 7.65792 13.1832 7.65891C13.1842 7.7095 13.1842 7.76828 13.1842 7.84211V11.2632C13.1842 11.9225 13.1831 12.3665 13.1386 12.698C13.0959 13.015 13.0219 13.1533 12.9297 13.2455C12.8375 13.3377 12.6992 13.4117 12.3822 13.4543C12.0507 13.4989 11.6067 13.5 10.9474 13.5H2.73684C2.07748 13.5 1.63347 13.4989 1.30201 13.4543C0.985016 13.4117 0.846663 13.3377 0.754501 13.2455ZM4.10526 9.39474C3.79119 9.39474 3.48998 9.5195 3.2679 9.74159C3.04582 9.96367 2.92105 10.2649 2.92105 10.579C2.92105 10.893 3.04582 11.1942 3.2679 11.4163C3.48998 11.6384 3.79119 11.7632 4.10526 11.7632H9.57895C9.89302 11.7632 10.1942 11.6384 10.4163 11.4163C10.6384 11.1942 10.7632 10.893 10.7632 10.579C10.7632 10.2649 10.6384 9.96367 10.4163 9.74159C10.1942 9.5195 9.89302 9.39474 9.57895 9.39474H4.10526Z" fill="#333333" stroke="#333333"/>
<path d="M3.4209 1V3.05263V1ZM10.263 1V3.05263V1Z" fill="#333333"/>
<path d="M3.4209 1V3.05263M10.263 1V3.05263" stroke="#333333" stroke-width="2" stroke-linecap="round"/>
</svg>
