<svg width="14" height="14" viewBox="0 0 14 14" fill="none" xmlns="http://www.w3.org/2000/svg">
<path fill-rule="evenodd" clip-rule="evenodd" d="M13.6668 6.99998C13.6668 10.6819 10.6821 13.6666 7.00016 13.6666C3.31826 13.6666 0.333496 10.6819 0.333496 6.99998C0.333496 3.31808 3.31826 0.333313 7.00016 0.333313C10.6821 0.333313 13.6668 3.31808 13.6668 6.99998ZM7.66683 2.99998C7.66683 2.63179 7.36835 2.33331 7.00016 2.33331C6.63197 2.33331 6.3335 2.63179 6.3335 2.99998V6.99998C6.3335 7.25249 6.47616 7.48334 6.70202 7.59626L9.36869 8.9296C9.69801 9.09426 10.0985 8.96077 10.2631 8.63146C10.4278 8.30214 10.2943 7.90169 9.96497 7.73703L7.66683 6.58796V2.99998Z" fill="#333333"/>
</svg>
