<svg width="12" height="12" viewBox="0 0 12 12" fill="none" xmlns="http://www.w3.org/2000/svg">
<path d="M0 2.5C0 1.83696 0.263392 1.20107 0.732233 0.732233C1.20107 0.263392 1.83696 0 2.5 0H9.5C10.163 0 10.7989 0.263392 11.2678 0.732233C11.7366 1.20107 12 1.83696 12 2.5V6H8.5C7.83696 6 7.20107 6.26339 6.73223 6.73223C6.26339 7.20107 6 7.83696 6 8.5V12H2.5C1.83696 12 1.20107 11.7366 0.732233 11.2678C0.263392 10.7989 0 10.163 0 9.5V2.5ZM7 11.859C7.35367 11.735 7.67493 11.533 7.94 11.268L11.268 7.939C11.5325 7.67412 11.7341 7.35322 11.858 7H8.5C8.10218 7 7.72064 7.15804 7.43934 7.43934C7.15804 7.72064 7 8.10218 7 8.5V11.859Z" fill="#333333"/>
</svg>
