<svg width="16" height="16" viewBox="0 0 16 16" fill="none" xmlns="http://www.w3.org/2000/svg">
<path d="M4.49817 2.40178C4.49817 2.20949 4.65327 2.05359 4.84457 2.05359H5.6129C5.8042 2.05359 5.9593 2.20949 5.9593 2.40178V3.17409C5.9593 3.36638 5.8042 3.52228 5.6129 3.52228H4.84457C4.65327 3.52228 4.49817 3.36638 4.49817 3.17409V2.40178Z" fill="#333333"/>
<path fill-rule="evenodd" clip-rule="evenodd" d="M3.84313 2.78798V3.48437C3.84313 3.86895 4.15329 4.18076 4.53593 4.18076H5.92154C6.30418 4.18076 6.61434 3.86895 6.61434 3.48437V2.78798H9.38556V3.48437C9.38556 3.86895 9.69572 4.18076 10.0784 4.18076H11.464C11.8466 4.18076 12.1568 3.86895 12.1568 3.48437V2.78798H12.7645C13.1941 2.78798 13.5424 3.13804 13.5424 3.56989V13.1483C13.5424 13.5802 13.1941 13.9302 12.7645 13.9302H3.2354C2.80578 13.9302 2.45752 13.5802 2.45752 13.1483V3.56989C2.45752 3.13804 2.80578 2.78798 3.2354 2.78798H3.84313ZM6.20109 7.77263L5.08289 8.8967L7.31928 11.1935L10.917 7.47943L9.79881 6.30657L7.31928 8.8967L6.20109 7.77263Z" fill="#333333"/>
<path d="M10.442 2.05359C10.2507 2.05359 10.0956 2.20949 10.0956 2.40178V3.17409C10.0956 3.36638 10.2507 3.52228 10.442 3.52228H11.2103C11.4016 3.52228 11.5567 3.36638 11.5567 3.17409V2.40178C11.5567 2.20949 11.4016 2.05359 11.2103 2.05359H10.442Z" fill="#333333"/>
</svg>
