<svg width="16" height="12" viewBox="0 0 16 12" fill="none" xmlns="http://www.w3.org/2000/svg">
<path d="M0.788086 6C1.41475 2.58667 4.40542 0 8.00009 0C11.5948 0 14.5854 2.58667 15.2128 6C14.5861 9.41333 11.5948 12 8.00009 12C4.40542 12 1.41475 9.41333 0.788086 6ZM8.00009 9.33333C8.88414 9.33333 9.73199 8.98214 10.3571 8.35702C10.9822 7.7319 11.3334 6.88406 11.3334 6C11.3334 5.11595 10.9822 4.2681 10.3571 3.64298C9.73199 3.01786 8.88414 2.66667 8.00009 2.66667C7.11603 2.66667 6.26818 3.01786 5.64306 3.64298C5.01794 4.2681 4.66675 5.11595 4.66675 6C4.66675 6.88406 5.01794 7.7319 5.64306 8.35702C6.26818 8.98214 7.11603 9.33333 8.00009 9.33333ZM8.00009 8C7.46965 8 6.96095 7.78929 6.58587 7.41421C6.2108 7.03914 6.00009 6.53043 6.00009 6C6.00009 5.46957 6.2108 4.96086 6.58587 4.58579C6.96095 4.21071 7.46965 4 8.00009 4C8.53052 4 9.03923 4.21071 9.4143 4.58579C9.78937 4.96086 10.0001 5.46957 10.0001 6C10.0001 6.53043 9.78937 7.03914 9.4143 7.41421C9.03923 7.78929 8.53052 8 8.00009 8Z" fill="#333333"/>
</svg>
