<svg width="16" height="15" viewBox="0 0 16 15" fill="none" xmlns="http://www.w3.org/2000/svg">
<path d="M3.19999 1.57895C3.19999 2.45098 2.48365 3.15789 1.6 3.15789C0.716342 3.15789 0 2.45098 0 1.57895C0 0.706919 0.716342 0 1.6 0C2.48365 0 3.19999 0.706919 3.19999 1.57895Z" fill="#333333"/>
<path d="M11.2 4.73684C12.4731 4.73684 13.6939 5.2359 14.5941 6.12423C15.4943 7.01256 16 8.2174 16 9.47368V15H12.8V9.47368C12.8 9.05492 12.6314 8.65331 12.3314 8.3572C12.0313 8.06109 11.6244 7.89474 11.2 7.89474C10.7757 7.89474 10.3687 8.06109 10.0686 8.3572C9.76859 8.65331 9.60002 9.05492 9.60002 9.47368V15H6.40003V9.47368C6.40003 8.2174 6.90574 7.01256 7.80591 6.12423C8.70608 5.2359 9.92698 4.73684 11.2 4.73684Z" fill="#333333"/>
<path d="M3.19999 15V5.52627H0V15H3.19999Z" fill="#333333"/>
</svg>
