<svg width="14" height="7" viewBox="0 0 14 7" fill="none" xmlns="http://www.w3.org/2000/svg">
<path d="M8.63636 1H10.2727C10.6309 1 10.9855 1.06466 11.3164 1.1903C11.6473 1.31594 11.9479 1.50009 12.2012 1.73223C12.4545 1.96438 12.6553 2.23998 12.7924 2.54329C12.9295 2.84661 13 3.1717 13 3.5C13 3.8283 12.9295 4.15339 12.7924 4.45671C12.6553 4.76002 12.4545 5.03562 12.2012 5.26777C11.9479 5.49991 11.6473 5.68406 11.3164 5.8097C10.9855 5.93534 10.6309 6 10.2727 6H8.63636M5.36364 6H3.72727C3.36912 6 3.01448 5.93534 2.68359 5.8097C2.3527 5.68406 2.05205 5.49991 1.7988 5.26777C1.28734 4.79893 1 4.16304 1 3.5C1 2.83696 1.28734 2.20107 1.7988 1.73223C2.31026 1.26339 3.00396 1 3.72727 1H5.36364M4.81818 3.5H9.18182" stroke="#333333" stroke-width="2" stroke-linecap="round" stroke-linejoin="round"/>
</svg>
