<svg width="15" height="16" viewBox="0 0 15 16" fill="none" xmlns="http://www.w3.org/2000/svg">
<path d="M5.03724 9.05701L9.97002 11.843M9.9628 4.15701L5.03724 6.94301M14 3.1C14 4.2598 13.0299 5.2 11.8333 5.2C10.6367 5.2 9.66667 4.2598 9.66667 3.1C9.66667 1.9402 10.6367 1 11.8333 1C13.0299 1 14 1.9402 14 3.1ZM5.33333 8C5.33333 9.1598 4.36328 10.1 3.16667 10.1C1.97005 10.1 1 9.1598 1 8C1 6.8402 1.97005 5.9 3.16667 5.9C4.36328 5.9 5.33333 6.8402 5.33333 8ZM14 12.9C14 14.0598 13.0299 15 11.8333 15C10.6367 15 9.66667 14.0598 9.66667 12.9C9.66667 11.7402 10.6367 10.8 11.8333 10.8C13.0299 10.8 14 11.7402 14 12.9Z" stroke="#333333" stroke-width="2" stroke-linecap="round" stroke-linejoin="round"/>
</svg>
