<svg width="12" height="16" viewBox="0 0 12 16" fill="none" xmlns="http://www.w3.org/2000/svg">
<path fill-rule="evenodd" clip-rule="evenodd" d="M5.99984 0.666687C5.05685 0.666687 4.15248 1.053 3.48568 1.74063C2.81888 2.42826 2.44428 3.36089 2.44428 4.33335C2.44428 5.30581 2.81888 6.23845 3.48568 6.92608C4.15248 7.61371 5.05685 8.00002 5.99984 8.00002C6.94283 8.00002 7.8472 7.61371 8.51399 6.92608C9.18079 6.23845 9.55539 5.30581 9.55539 4.33335C9.55539 3.36089 9.18079 2.42826 8.51399 1.74063C7.8472 1.053 6.94283 0.666687 5.99984 0.666687ZM4.22206 8.91669C3.27907 8.91669 2.3747 9.303 1.7079 9.99063C1.04111 10.6783 0.666504 11.6109 0.666504 12.5834V13.5C0.666504 14.5084 1.4665 15.3334 2.44428 15.3334H9.55539C10.0269 15.3334 10.4791 15.1402 10.8125 14.7964C11.1459 14.4526 11.3332 13.9863 11.3332 13.5V12.5834C11.3332 11.6109 10.9586 10.6783 10.2918 9.99063C9.62498 9.303 8.72061 8.91669 7.77762 8.91669H4.22206Z" fill="#333333"/>
</svg>
