<svg width="14" height="10" viewBox="0 0 14 10" fill="none" xmlns="http://www.w3.org/2000/svg">
<path fill-rule="evenodd" clip-rule="evenodd" d="M13.2606 0.737765C13.4774 0.961222 13.6313 1.23792 13.7069 1.53992C13.9088 2.65903 14.0068 3.79441 13.9996 4.93156C14.0036 6.05171 13.9057 7.1699 13.7069 8.27229C13.6313 8.57428 13.4774 8.85098 13.2606 9.07444C13.0439 9.2979 12.772 9.4602 12.4724 9.54495C11.3779 9.83766 6.99999 9.83766 6.99999 9.83766C6.99999 9.83766 2.62204 9.83766 1.52756 9.54495C1.23409 9.46465 0.966301 9.31002 0.750052 9.096C0.533803 8.88198 0.376409 8.61581 0.293075 8.32319C0.0912111 7.20408 -0.00677632 6.06871 0.000363754 4.93156C-0.00521309 3.8029 0.0927681 2.67612 0.293075 1.56537C0.368664 1.26338 0.52261 0.986675 0.739363 0.763218C0.956117 0.539761 1.228 0.377461 1.52756 0.292712C2.62204 0 6.99999 0 6.99999 0C6.99999 0 11.3779 0 12.4724 0.267259C12.772 0.352008 13.0439 0.514308 13.2606 0.737765ZM9.22712 4.93154L5.56822 7.01234V2.85075L9.22712 4.93154Z" fill="#333333"/>
</svg>
