<svg width="20" height="20" viewBox="0 0 20 20" fill="none" xmlns="http://www.w3.org/2000/svg">
<rect opacity="0.2" width="20" height="20" rx="4" fill="#0000EE"/>
<path d="M14.4531 4.9375H13.375V4.375C13.375 4.16791 13.2071 4 13 4C12.7929 4 12.625 4.16791 12.625 4.375V4.9375H7.375V4.375C7.375 4.16791 7.20712 4 7 4C6.79288 4 6.625 4.16791 6.625 4.375V4.9375H5.54688C4.69391 4.9375 4 5.63141 4 6.48438V14.4531C4 15.3061 4.69391 16 5.54688 16H14.4531C15.3061 16 16 15.3061 16 14.4531V6.48438C16 5.63141 15.3061 4.9375 14.4531 4.9375ZM5.54688 5.6875H6.625V6.0625C6.625 6.26959 6.79288 6.4375 7 6.4375C7.20712 6.4375 7.375 6.26959 7.375 6.0625V5.6875H12.625V6.0625C12.625 6.26959 12.7929 6.4375 13 6.4375C13.2071 6.4375 13.375 6.26959 13.375 6.0625V5.6875H14.4531C14.8925 5.6875 15.25 6.04497 15.25 6.48438V7.375H4.75V6.48438C4.75 6.04497 5.10747 5.6875 5.54688 5.6875ZM14.4531 15.25H5.54688C5.10747 15.25 4.75 14.8925 4.75 14.4531V8.125H15.25V14.4531C15.25 14.8925 14.8925 15.25 14.4531 15.25Z" fill="#0000EE"/>
</svg>
