<svg width="642" height="136" viewBox="0 0 642 136" fill="none" xmlns="http://www.w3.org/2000/svg">
<path d="M239.152 29.5117L177.591 124.102L74.166 92.5719L239.152 29.5117Z" fill="#D4E5F1"/>
<path d="M93.5833 134.7L74.166 93.0801L177.85 124.028L93.5833 134.7Z" fill="#CADBE9"/>
<path d="M0 22.7012L74.1681 92.3182L54.0529 105.941L0 22.7012Z" fill="#ABC1D7"/>
<path d="M93.0867 134.7L73.5743 93.0801L53.7324 106.536L93.0867 134.7Z" fill="#95B0C4"/>
<path d="M62.0586 81.8851L105.954 0L99.1548 83.3019L73.7147 93.077L62.0586 81.8851Z" fill="#EAE735"/>
<path d="M152.122 62.996L106.034 0L99.1445 83.2396L152.122 62.996Z" fill="#ED5248"/>
<path d="M239.156 29.5117L145.311 53.2059L152.454 62.8075L239.156 29.5117Z" fill="#DEEAF5"/>
<path d="M82.4932 43.3873L0 22.7012L61.6807 80.9687L82.4932 43.3873Z" fill="#E0E9F5"/>
<path opacity="0.1" d="M71.9971 40.8594L62.0586 80.9658L82.4927 43.5176L71.9971 40.8594Z" fill="black"/>
<path opacity="0.1" d="M149.164 52.2109L152.122 62.8051L145.311 53.2133L149.164 52.2109Z" fill="black"/>
<path opacity="0.1" d="M105.933 0L109.74 79.1343L99.1445 83.2396L105.933 0Z" fill="black"/>
<path opacity="0.1" d="M93.8457 84.753L105.955 0L99.1408 82.7361L93.8457 84.753Z" fill="black"/>
<path d="M73.1714 93.0766L0 23.3576L0.60937 22.7012L73.3588 91.9981L238.826 29.5466L239.154 30.3903L73.1714 93.0766Z" fill="white"/>
<path d="M267.15 126.375C270.799 125.919 273.986 125.008 276.62 123.549C280.453 121.497 283.826 118.762 286.826 115.48L278.605 107.457L267.15 126.375Z" fill="url(#paint0_linear_3350_190)"/>
<path d="M277.742 83.2424L286.839 73.6642C283.854 70.4238 280.334 67.8507 276.374 65.8491C275.149 65.2297 273.83 64.7532 272.459 64.3242L277.203 82.623C277.35 82.8613 277.546 83.0517 277.742 83.2424Z" fill="url(#paint1_linear_3350_190)"/>
<path d="M332.921 89.3708L357.219 64.3242H340.209L314.836 91.5794V108.214L323.389 99.2857L332.921 89.3708Z" fill="url(#paint2_linear_3350_190)"/>
<path d="M314.833 85.9665V40.8594H300.453V124.856H314.833V116.873V107.453V91.0249V85.9665Z" fill="url(#paint3_linear_3350_190)"/>
<path d="M323.156 98.9637L341.266 124.859H357.212L332.533 89.293L323.156 98.9637Z" fill="url(#paint4_linear_3350_190)"/>
<path d="M391.342 62.8105C386.285 62.8105 381.938 63.2776 378.344 64.2113C374.756 65.1451 371.255 66.3591 367.809 67.8997L371.682 79.1055C374.473 77.9381 377.259 77.0043 380.001 76.351C382.743 75.6506 385.861 75.3236 389.356 75.3236C394.272 75.3236 398.053 76.444 400.651 78.6856C403.252 80.9266 404.574 84.1481 404.574 88.3968V89.8909V98.8554C404.669 98.9022 404.715 98.9022 404.811 98.949V102.777C404.811 103.618 404.715 104.412 404.574 105.159V124.862H418.516V88.6301C418.516 80.4595 416.296 74.1094 411.851 69.5809C407.411 65.0518 400.556 62.8105 391.342 62.8105Z" fill="#414242"/>
<path d="M403.162 108.424C402.371 110.005 401.206 111.354 399.759 112.469C398.315 113.585 396.59 114.469 394.634 115.073C392.675 115.678 390.532 116.003 388.203 116.003C384.892 116.003 382.093 115.213 379.811 113.678C377.526 112.144 376.408 109.912 376.408 106.983V106.75C376.408 103.588 377.621 101.171 380.091 99.4965C382.561 97.8226 385.964 96.9392 390.39 96.9392C393.094 96.9392 395.659 97.1717 398.083 97.6366C400.412 98.0549 402.417 98.6128 404.142 99.264V90.3366C401.764 89.5927 399.248 88.9416 396.685 88.4764C394.12 88.0116 390.951 87.7793 387.267 87.7793C383.725 87.7793 380.415 88.1976 377.387 88.9881C374.357 89.7788 371.748 90.9873 369.509 92.6149C367.319 94.2423 365.594 96.2883 364.381 98.7061C363.17 101.171 362.518 104.053 362.518 107.355V107.587C362.518 110.656 363.122 113.353 364.291 115.724C365.502 118.049 367.039 120.049 369.044 121.583C371 123.164 373.285 124.326 375.896 125.163C378.505 125.953 381.302 126.372 384.193 126.372C388.807 126.372 392.722 125.535 395.986 123.815C399.201 122.141 401.856 120.049 403.957 117.584V125.07H404.046V105.448C403.957 106.564 403.627 107.541 403.162 108.424Z" fill="url(#paint5_linear_3350_190)"/>
<path d="M483.997 69.1272C480.197 64.9006 474.854 62.8105 467.874 62.8105C465.483 62.8105 463.325 63.0893 461.451 63.6929C459.577 64.297 457.844 65.0864 456.25 66.0618C454.656 67.0372 453.296 68.1983 452.08 69.4988C450.858 70.7995 449.781 72.1461 448.799 73.6323V90.6315C448.799 85.8941 450.064 82.1783 452.596 79.5312C455.124 76.8836 458.407 75.5831 462.482 75.5831C466.609 75.5831 469.841 76.8836 472.09 79.4382C474.343 81.9925 475.513 85.6621 475.513 90.3992V124.862H489.666V86.1729C489.666 79.0201 487.792 73.3538 483.997 69.1272Z" fill="url(#paint6_linear_3350_190)"/>
<path d="M448.791 64.3242H435.17V124.862H448.791V97.2063V90.7779V73.8051V64.3242Z" fill="url(#paint7_linear_3350_190)"/>
<path d="M249.408 80.8852C250.972 79.1012 252.868 77.6927 255.048 76.6597C257.228 75.6272 259.645 75.1107 262.204 75.1107C265.806 75.1107 268.839 75.8149 271.304 77.2703C273.579 78.5846 275.712 80.2278 277.749 82.2466L273.152 64.2187C270.024 63.2797 266.422 62.8105 262.346 62.8105C257.702 62.8105 253.436 63.6554 249.455 65.3926C245.474 67.0826 242.061 69.4299 239.218 72.3877C236.327 75.3451 234.099 78.7726 232.488 82.6222C230.876 86.5186 230.07 90.65 230.07 95.0632C230.07 99.4761 230.876 103.608 232.488 107.457L245.948 86.7063C246.801 84.453 247.938 82.5752 249.408 80.8852Z" fill="#414242"/>
<path d="M278.415 107.194C276.165 109.44 273.777 111.265 271.292 112.716C268.761 114.167 265.855 114.868 262.527 114.868C259.809 114.868 257.325 114.354 255.075 113.324C252.825 112.295 250.904 110.891 249.263 109.112C247.623 107.334 246.358 105.228 245.467 102.841C244.576 100.455 244.108 97.8338 244.108 95.0727C244.108 92.3584 244.529 89.8313 245.467 87.4913C245.514 87.3041 245.608 87.1638 245.654 87.0234L232.344 107.708C233.937 111.546 236.187 114.915 238.999 117.817C241.858 120.718 245.233 123.011 249.076 124.649C252.966 126.334 257.184 127.13 261.73 127.13C263.558 127.13 265.245 127.036 266.886 126.802L278.51 107.381L278.415 107.194Z" fill="url(#paint8_linear_3350_190)"/>
<path d="M616.355 59.8086H548.053C560.255 61.9749 569.524 72.6262 569.524 85.452C569.524 98.2778 560.255 108.929 548.053 111.095H616.355C630.518 111.095 641.998 99.6153 641.998 85.452C641.998 71.2886 630.518 59.8086 616.355 59.8086ZM584.893 95.0282H579.568V75.8798H584.893C590.174 75.8798 594.47 80.1756 594.47 85.4561C594.47 90.7365 590.174 95.0323 584.893 95.0323V95.0282ZM604.784 86.687H600.275V95.0241H597.867V75.8757H604.789C607.78 75.8757 610.209 78.3087 610.209 81.2957C610.209 84.2826 607.829 86.687 604.789 86.687H604.784ZM631.601 85.452C631.601 90.8678 627.195 95.2785 621.775 95.2785C616.355 95.2785 611.948 90.8719 611.948 85.452C611.948 80.032 616.355 75.6254 621.775 75.6254C625.312 75.6254 628.578 77.5333 630.293 80.6023L630.391 80.7828L628.315 81.9522L628.217 81.7716C626.94 79.4658 624.471 78.038 621.775 78.038C617.684 78.038 614.361 81.3654 614.361 85.452C614.361 89.5385 617.688 92.866 621.775 92.866C625.336 92.866 628.348 90.4001 629.025 86.966H621.537V84.6806H631.597V85.4479L631.601 85.452Z" fill="#212180"/>
<path d="M584.863 78.2871H581.945V92.6187H584.863C588.965 92.6187 592.059 89.5374 592.059 85.4549C592.059 81.3725 588.965 78.2912 584.863 78.2912V78.2871Z" fill="#82DBE1"/>
<path d="M604.602 78.2227H600.277V84.373H604.602C606.194 84.373 607.802 83.4334 607.802 81.3286C607.802 79.5274 606.456 78.2227 604.602 78.2227Z" fill="#82DBE1"/>
<path d="M584.863 92.6148H581.945V78.2832H584.863C588.965 78.2832 592.059 81.3645 592.059 85.4469C592.059 89.5294 588.965 92.6107 584.863 92.6107V92.6148Z" fill="#212180"/>
<path d="M604.602 84.373H600.277V78.2227H604.602C606.456 78.2227 607.802 79.5274 607.802 81.3286C607.802 83.4293 606.194 84.373 604.602 84.373Z" fill="#212180"/>
<path d="M553.811 77.5509L554.024 70.1903L547.09 72.6684L542.938 66.5879L538.786 72.6684L531.852 70.1903L532.065 77.5509L525 79.6188L529.501 85.4491L525 91.2794L532.065 93.3514L531.852 100.712L538.786 98.2339L542.938 104.314L547.09 98.2339L554.024 100.712L553.811 93.3514L560.876 91.2794L556.375 85.4491L560.876 79.6188L553.811 77.5468V77.5509ZM541.617 91.6363L536.907 87.7016L538.482 85.8102L541.375 88.2227L547.968 80.8989L549.798 82.5442L541.621 91.6322L541.617 91.6363Z" fill="#82DBE1"/>
<defs>
<linearGradient id="paint0_linear_3350_190" x1="267.148" y1="116.92" x2="286.813" y2="116.92" gradientUnits="userSpaceOnUse">
<stop stop-color="#999999"/>
<stop offset="1"/>
</linearGradient>
<linearGradient id="paint1_linear_3350_190" x1="272.41" y1="73.8061" x2="286.828" y2="73.8061" gradientUnits="userSpaceOnUse">
<stop stop-color="#999999"/>
<stop offset="1"/>
</linearGradient>
<linearGradient id="paint2_linear_3350_190" x1="304.711" y1="109.206" x2="345.272" y2="68.8776" gradientUnits="userSpaceOnUse">
<stop stop-color="#999999"/>
<stop offset="1"/>
</linearGradient>
<linearGradient id="paint3_linear_3350_190" x1="307.648" y1="13.6622" x2="307.648" y2="106.265" gradientUnits="userSpaceOnUse">
<stop stop-color="#999999"/>
<stop offset="1"/>
</linearGradient>
<linearGradient id="paint4_linear_3350_190" x1="316.891" y1="75.7947" x2="350.03" y2="127.407" gradientUnits="userSpaceOnUse">
<stop stop-color="#999999"/>
<stop offset="1"/>
</linearGradient>
<linearGradient id="paint5_linear_3350_190" x1="419.525" y1="107.159" x2="380.135" y2="107.159" gradientUnits="userSpaceOnUse">
<stop stop-color="#999999"/>
<stop offset="1"/>
</linearGradient>
<linearGradient id="paint6_linear_3350_190" x1="434.139" y1="93.8215" x2="482.735" y2="93.8215" gradientUnits="userSpaceOnUse">
<stop stop-color="#999999"/>
<stop offset="1"/>
</linearGradient>
<linearGradient id="paint7_linear_3350_190" x1="441.987" y1="44.0771" x2="441.987" y2="130.328" gradientUnits="userSpaceOnUse">
<stop stop-color="#999999"/>
<stop offset="1"/>
</linearGradient>
<linearGradient id="paint8_linear_3350_190" x1="253.677" y1="81.7314" x2="257.264" y2="134.088" gradientUnits="userSpaceOnUse">
<stop stop-color="#999999"/>
<stop offset="1"/>
</linearGradient>
</defs>
</svg>
