<svg width="174" height="25" viewBox="0 0 174 25" fill="none" xmlns="http://www.w3.org/2000/svg">
<path d="M7.55893 0C14.5167 7.65721e-05 20.1575 5.59645 20.1575 12.5C20.1575 19.4035 14.517 24.9998 7.55928 25H1.40992C0.630045 24.9934 0 24.3642 0 23.5889V9.42906H7.59901C8.03823 9.42898 8.39447 9.07561 8.39448 8.63979C8.39445 8.20399 8.03822 7.85059 7.59901 7.85052H0V1.41148C0 0.632057 0.636682 4.32408e-05 1.42222 0H7.55893Z" fill="#64B647" fill-opacity="0.35"/>
<path d="M7.2038 1.27527C13.0721 1.27541 17.8293 5.99572 17.8293 11.8183C17.8291 17.6407 13.072 22.3608 7.2038 22.361H0.000244141V9.42922H7.59925L7.6808 9.42503C7.73416 9.41963 7.78611 9.40898 7.83582 9.39364L7.90893 9.36714C7.9803 9.33716 8.04651 9.29717 8.10543 9.2489C8.14467 9.21676 8.1806 9.18076 8.21299 9.14183C8.24543 9.10282 8.27426 9.06069 8.29876 9.01592C8.35992 8.90418 8.39469 8.77603 8.39472 8.63995C8.39472 8.50379 8.35994 8.37541 8.29876 8.26362C8.28658 8.24138 8.27324 8.21963 8.25904 8.19875C8.21621 8.13581 8.16428 8.07923 8.10543 8.03099C8.08574 8.01486 8.06512 7.99952 8.04391 7.9853C8.0017 7.95702 7.95638 7.93268 7.90893 7.91275C7.83754 7.88277 7.7607 7.86261 7.68045 7.85451C7.65382 7.85183 7.62659 7.85068 7.59925 7.85067H0.000244141V1.41129C0.000244141 1.36541 0.00261039 1.32002 0.00692288 1.27527H7.2038Z" fill="#80CC72"/>
<path d="M7.26355 2.91479C11.8771 2.9149 15.6172 6.62583 15.6173 11.2034C15.6172 15.781 11.8771 19.4918 7.26355 19.4919H0.000244141V9.42916H7.59925C8.03849 9.42911 8.39471 9.07572 8.39472 8.63989C8.39466 8.20411 8.03846 7.85068 7.59925 7.85062H0.000244141V2.91479H7.26355Z" fill="#0B8396"/>
<path d="M7.60206 4.41772C10.9227 4.41781 13.615 7.08869 13.615 10.3835C13.615 13.6783 10.9228 16.3495 7.60206 16.3496H0.000244141V9.42923H7.59925C8.03845 9.42915 8.39469 9.07575 8.39472 8.63996C8.39472 8.20415 8.03847 7.85078 7.59925 7.85069H0.000244141V4.41772H7.60206Z" fill="#0B7484"/>
<path d="M7.16513 5.82959C9.21811 5.82965 10.8827 7.48089 10.8827 9.51786C10.8827 11.5549 9.21814 13.2064 7.16513 13.2065H0.000244141V9.42892H7.59925C8.0385 9.42886 8.39472 9.07549 8.39472 8.63965C8.39464 8.20388 8.03845 7.85078 7.59925 7.85073H0.000244141V5.82959H7.16513Z" fill="#096371"/>
<path d="M26.8853 18.3888V16.3104H29.3645C29.9883 16.3104 30.5411 16.2212 31.0227 16.0427C31.5152 15.8538 31.9311 15.5914 32.2705 15.2555C32.6098 14.9196 32.867 14.5259 33.0421 14.0746C33.2282 13.6127 33.3212 13.1036 33.3212 12.5472C33.3212 11.9699 33.2282 11.4555 33.0421 11.0042C32.867 10.5423 32.6098 10.1487 32.2705 9.82327C31.9311 9.49786 31.5152 9.25118 31.0227 9.08323C30.5411 8.91527 29.9883 8.8313 29.3645 8.8313H26.8853V6.75289H29.2167C30.3003 6.75289 31.2471 6.9051 32.057 7.20951C32.867 7.51393 33.5401 7.9338 34.0764 8.46915C34.6128 8.994 35.0123 9.59758 35.275 10.2799C35.5486 10.9517 35.6854 11.6497 35.6854 12.374V12.7204C35.6854 13.4132 35.5486 14.0955 35.275 14.7674C35.0123 15.4392 34.6128 16.048 34.0764 16.5938C33.5401 17.1397 32.867 17.5753 32.057 17.9007C31.2471 18.2261 30.3003 18.3888 29.2167 18.3888H26.8853ZM24.8823 18.3888V6.75289H27.2137V18.3888H24.8823Z" fill="#0B8396"/>
<path d="M42.994 18.3258V15.7908H42.6164V12.9724C42.6164 12.479 42.4905 12.1116 42.2388 11.8702C41.987 11.6287 41.5985 11.508 41.0731 11.508C40.7995 11.508 40.4711 11.5133 40.088 11.5238C39.7049 11.5343 39.3164 11.55 38.9223 11.571C38.5392 11.5815 38.1945 11.5973 37.888 11.6183V9.76028C38.1397 9.73929 38.4243 9.7183 38.7417 9.6973C39.0591 9.67631 39.382 9.66581 39.7104 9.66581C40.0497 9.65531 40.3671 9.65007 40.6626 9.65007C41.5821 9.65007 42.3428 9.76553 42.9448 9.99647C43.5577 10.2274 44.0174 10.5895 44.3239 11.0829C44.6413 11.5763 44.8 12.2218 44.8 13.0196V18.3258H42.994ZM40.1208 18.5463C39.4751 18.5463 38.9059 18.4361 38.4134 18.2156C37.9318 17.9952 37.5542 17.6803 37.2805 17.2709C37.0178 16.8615 36.8865 16.3681 36.8865 15.7908C36.8865 15.161 37.0452 14.6466 37.3626 14.2478C37.691 13.8489 38.1452 13.5497 38.7253 13.3503C39.3164 13.1508 40.0059 13.0511 40.794 13.0511H42.8627V14.358H40.7612C40.2358 14.358 39.8308 14.4839 39.5462 14.7359C39.2726 14.9773 39.1358 15.2922 39.1358 15.6806C39.1358 16.069 39.2726 16.3839 39.5462 16.6253C39.8308 16.8668 40.2358 16.9875 40.7612 16.9875C41.0786 16.9875 41.3686 16.935 41.6313 16.83C41.9049 16.7145 42.1293 16.5256 42.3045 16.2632C42.4905 15.9903 42.5945 15.6229 42.6164 15.161L43.1746 15.7751C43.1199 16.3734 42.9666 16.8773 42.7149 17.2866C42.4741 17.696 42.1348 18.0109 41.697 18.2314C41.2701 18.4413 40.7447 18.5463 40.1208 18.5463Z" fill="#0B8396"/>
<path d="M51.1192 18.4361C50.2983 18.4361 49.6196 18.3363 49.0833 18.1369C48.5579 17.927 48.1639 17.5806 47.9012 17.0977C47.6385 16.6043 47.5072 15.943 47.5072 15.1138L47.5236 7.36697H49.6579L49.6415 15.2555C49.6415 15.6753 49.7565 16.0008 49.9863 16.2317C50.2271 16.4521 50.5664 16.5623 51.0042 16.5623H52.3998V18.4361H51.1192ZM46.0952 11.3821V9.77603H52.3998V11.3821H46.0952Z" fill="#0B8396"/>
<path d="M59.6846 18.3258V15.7908H59.307V12.9724C59.307 12.479 59.1811 12.1116 58.9294 11.8702C58.6777 11.6287 58.2891 11.508 57.7637 11.508C57.4901 11.508 57.1617 11.5133 56.7786 11.5238C56.3956 11.5343 56.007 11.55 55.613 11.571C55.2299 11.5815 54.8851 11.5973 54.5786 11.6183V9.76028C54.8304 9.73929 55.1149 9.7183 55.4324 9.6973C55.7498 9.67631 56.0727 9.66581 56.401 9.66581C56.7403 9.65531 57.0577 9.65007 57.3533 9.65007C58.2727 9.65007 59.0334 9.76553 59.6354 9.99647C60.2483 10.2274 60.708 10.5895 61.0145 11.0829C61.3319 11.5763 61.4906 12.2218 61.4906 13.0196V18.3258H59.6846ZM56.8115 18.5463C56.1657 18.5463 55.5965 18.4361 55.104 18.2156C54.6224 17.9952 54.2448 17.6803 53.9712 17.2709C53.7085 16.8615 53.5771 16.3681 53.5771 15.7908C53.5771 15.161 53.7358 14.6466 54.0532 14.2478C54.3816 13.8489 54.8358 13.5497 55.4159 13.3503C56.007 13.1508 56.6965 13.0511 57.4846 13.0511H59.5533V14.358H57.4518C56.9264 14.358 56.5214 14.4839 56.2368 14.7359C55.9632 14.9773 55.8264 15.2922 55.8264 15.6806C55.8264 16.069 55.9632 16.3839 56.2368 16.6253C56.5214 16.8668 56.9264 16.9875 57.4518 16.9875C57.7692 16.9875 58.0592 16.935 58.3219 16.83C58.5956 16.7145 58.82 16.5256 58.9951 16.2632C59.1811 15.9903 59.2851 15.6229 59.307 15.161L59.8652 15.7751C59.8105 16.3734 59.6573 16.8773 59.4055 17.2866C59.1647 17.696 58.8254 18.0109 58.3876 18.2314C57.9607 18.4413 57.4354 18.5463 56.8115 18.5463Z" fill="#0B8396"/>
<path d="M67.1695 18.5935C65.9436 18.5935 64.9804 18.3468 64.2799 17.8535C63.5903 17.3496 63.2291 16.6568 63.1963 15.7751H65.2486C65.2814 16.069 65.451 16.3367 65.7575 16.5781C66.064 16.8195 66.5456 16.9402 67.2023 16.9402C67.7496 16.9402 68.1819 16.8458 68.4993 16.6568C68.8277 16.4679 68.9919 16.2107 68.9919 15.8853C68.9919 15.6019 68.866 15.3762 68.6143 15.2082C68.3735 15.0403 67.9575 14.9301 67.3665 14.8776L66.5784 14.7988C65.5824 14.6939 64.8162 14.421 64.2799 13.9801C63.7436 13.5392 63.4754 12.9514 63.4754 12.2166C63.4754 11.6287 63.6286 11.1354 63.9351 10.7365C64.2416 10.3376 64.663 10.0385 65.1993 9.83901C65.7466 9.62907 66.3705 9.5241 67.071 9.5241C68.1655 9.5241 69.0521 9.75504 69.7307 10.2169C70.4093 10.6788 70.765 11.3558 70.7979 12.2481H68.7456C68.7237 11.9542 68.5705 11.7022 68.2859 11.4923C68.0013 11.2823 67.5909 11.1774 67.0545 11.1774C66.573 11.1774 66.2008 11.2666 65.9381 11.4451C65.6754 11.6235 65.5441 11.8544 65.5441 12.1379C65.5441 12.4108 65.6481 12.6207 65.856 12.7677C66.0749 12.9146 66.4252 13.0144 66.9068 13.0668L67.6949 13.1456C68.7456 13.2505 69.5665 13.5287 70.1576 13.9801C70.7596 14.4314 71.0606 15.0403 71.0606 15.8066C71.0606 16.3734 70.8964 16.8668 70.568 17.2866C70.2506 17.696 69.8018 18.0162 69.2217 18.2471C68.6416 18.478 67.9575 18.5935 67.1695 18.5935Z" fill="#0B8396"/>
<path d="M72.9458 18.3258V6.83162H75.2279V13.5392H74.8339C74.8339 12.6785 74.9488 11.9489 75.1787 11.3506C75.4085 10.7523 75.7478 10.2956 76.1966 9.98072C76.6563 9.66581 77.2364 9.50836 77.9369 9.50836H78.0354C79.0533 9.50836 79.825 9.84426 80.3504 10.5161C80.8757 11.1879 81.1384 12.1641 81.1384 13.4447V18.3258H78.8563V13.24C78.8563 12.6942 78.6921 12.2638 78.3638 11.9489C78.0464 11.634 77.625 11.4765 77.0996 11.4765C76.5414 11.4765 76.0871 11.655 75.7369 12.0119C75.3976 12.3583 75.2279 12.8149 75.2279 13.3817V18.3258H72.9458Z" fill="#0B8396"/>
<path d="M88.9934 18.3258V15.7908H88.6158V12.9724C88.6158 12.479 88.49 12.1116 88.2382 11.8702C87.9865 11.6287 87.5979 11.508 87.0725 11.508C86.7989 11.508 86.4705 11.5133 86.0874 11.5238C85.7044 11.5343 85.3158 11.55 84.9218 11.571C84.5387 11.5815 84.1939 11.5973 83.8874 11.6183V9.76028C84.1392 9.73929 84.4237 9.7183 84.7412 9.6973C85.0586 9.67631 85.3815 9.66581 85.7098 9.66581C86.0491 9.65531 86.3666 9.65007 86.6621 9.65007C87.5815 9.65007 88.3422 9.76553 88.9442 9.99647C89.5571 10.2274 90.0168 10.5895 90.3233 11.0829C90.6407 11.5763 90.7994 12.2218 90.7994 13.0196V18.3258H88.9934ZM86.1203 18.5463C85.4745 18.5463 84.9053 18.4361 84.4128 18.2156C83.9312 17.9952 83.5536 17.6803 83.28 17.2709C83.0173 16.8615 82.8859 16.3681 82.8859 15.7908C82.8859 15.161 83.0446 14.6466 83.362 14.2478C83.6904 13.8489 84.1446 13.5497 84.7247 13.3503C85.3158 13.1508 86.0054 13.0511 86.7934 13.0511H88.8621V14.358H86.7606C86.2352 14.358 85.8302 14.4839 85.5456 14.7359C85.272 14.9773 85.1352 15.2922 85.1352 15.6806C85.1352 16.069 85.272 16.3839 85.5456 16.6253C85.8302 16.8668 86.2352 16.9875 86.7606 16.9875C87.078 16.9875 87.3681 16.935 87.6307 16.83C87.9044 16.7145 88.1288 16.5256 88.3039 16.2632C88.49 15.9903 88.5939 15.6229 88.6158 15.161L89.174 15.7751C89.1193 16.3734 88.9661 16.8773 88.7143 17.2866C88.4735 17.696 88.1342 18.0109 87.6964 18.2314C87.2695 18.4413 86.7442 18.5463 86.1203 18.5463Z" fill="#0B8396"/>
<path d="M96.938 18.6093C96.3141 18.6093 95.7395 18.499 95.2141 18.2786C94.6887 18.0582 94.2345 17.7485 93.8514 17.3496C93.4683 16.9507 93.1728 16.4889 92.9648 15.964C92.7569 15.4287 92.6529 14.8513 92.6529 14.232V13.9014C92.6529 13.2925 92.7514 12.7204 92.9484 12.1851C93.1564 11.6497 93.4409 11.1826 93.8021 10.7837C94.1743 10.3849 94.6176 10.0752 95.132 9.85476C95.6574 9.62382 96.2375 9.50836 96.8723 9.50836C97.5728 9.50836 98.1858 9.65531 98.7111 9.94923C99.2475 10.2326 99.6743 10.663 99.9917 11.2404C100.309 11.8177 100.484 12.542 100.517 13.4132L99.844 12.6575V6.83162H102.126V18.3258H100.32V14.6886H100.714C100.681 15.5599 100.495 16.2894 100.156 16.8773C99.8166 17.4546 99.3679 17.8902 98.8096 18.1841C98.2624 18.4675 97.6385 18.6093 96.938 18.6093ZM97.4469 16.767C97.8957 16.767 98.3062 16.6726 98.6783 16.4836C99.0504 16.2842 99.346 16.0008 99.5649 15.6334C99.7947 15.2555 99.9097 14.8146 99.9097 14.3107V13.6809C99.9097 13.1771 99.7947 12.7572 99.5649 12.4213C99.335 12.0749 99.034 11.8124 98.6619 11.634C98.2897 11.4451 97.8848 11.3506 97.4469 11.3506C96.9544 11.3506 96.5166 11.466 96.1335 11.697C95.7614 11.9174 95.4658 12.2323 95.2469 12.6417C95.039 13.0511 94.935 13.5287 94.935 14.0746C94.935 14.6204 95.0444 15.098 95.2633 15.5074C95.4822 15.9063 95.7778 16.2159 96.1499 16.4364C96.533 16.6568 96.9653 16.767 97.4469 16.767Z" fill="#0B8396"/>
<path d="M108.713 18.625C107.947 18.625 107.274 18.499 106.694 18.2471C106.125 17.9952 105.649 17.6593 105.266 17.2394C104.893 16.809 104.609 16.3314 104.412 15.8066C104.226 15.2817 104.133 14.7464 104.133 14.2005V13.9014C104.133 13.3345 104.226 12.7887 104.412 12.2638C104.609 11.7285 104.893 11.2561 105.266 10.8467C105.649 10.4268 106.119 10.0962 106.677 9.85476C107.236 9.60283 107.881 9.47686 108.615 9.47686C109.578 9.47686 110.382 9.68156 111.028 10.0909C111.685 10.4898 112.178 11.0199 112.506 11.6812C112.834 12.332 112.998 13.0353 112.998 13.7911V14.5784H105.101V13.24H111.57L110.864 13.9014C110.864 13.3555 110.782 12.8884 110.618 12.5C110.454 12.1116 110.202 11.8124 109.863 11.6025C109.534 11.3926 109.118 11.2876 108.615 11.2876C108.111 11.2876 107.684 11.3978 107.334 11.6183C106.984 11.8387 106.716 12.1588 106.53 12.5787C106.355 12.9881 106.267 13.4815 106.267 14.0588C106.267 14.5942 106.355 15.0718 106.53 15.4916C106.705 15.901 106.973 16.2264 107.334 16.4679C107.695 16.6988 108.155 16.8143 108.713 16.8143C109.272 16.8143 109.726 16.7093 110.076 16.4994C110.426 16.2789 110.651 16.0112 110.749 15.6963H112.851C112.719 16.2842 112.468 16.7985 112.095 17.2394C111.723 17.6803 111.247 18.0214 110.667 18.2629C110.098 18.5043 109.447 18.625 108.713 18.625Z" fill="#0B8396"/>
<path d="M118.139 18.5935C116.913 18.5935 115.95 18.3468 115.25 17.8535C114.56 17.3496 114.199 16.6568 114.166 15.7751H116.218C116.251 16.069 116.421 16.3367 116.727 16.5781C117.034 16.8195 117.515 16.9402 118.172 16.9402C118.719 16.9402 119.152 16.8458 119.469 16.6568C119.797 16.4679 119.962 16.2107 119.962 15.8853C119.962 15.6019 119.836 15.3762 119.584 15.2082C119.343 15.0403 118.927 14.9301 118.336 14.8776L117.548 14.7988C116.552 14.6939 115.786 14.421 115.25 13.9801C114.713 13.5392 114.445 12.9514 114.445 12.2166C114.445 11.6287 114.598 11.1354 114.905 10.7365C115.211 10.3376 115.633 10.0385 116.169 9.83901C116.716 9.62907 117.34 9.5241 118.041 9.5241C119.135 9.5241 120.022 9.75504 120.7 10.2169C121.379 10.6788 121.735 11.3558 121.768 12.2481H119.715C119.693 11.9542 119.54 11.7022 119.256 11.4923C118.971 11.2823 118.561 11.1774 118.024 11.1774C117.543 11.1774 117.171 11.2666 116.908 11.4451C116.645 11.6235 116.514 11.8544 116.514 12.1379C116.514 12.4108 116.618 12.6207 116.826 12.7677C117.045 12.9146 117.395 13.0144 117.877 13.0668L118.665 13.1456C119.715 13.2505 120.536 13.5287 121.127 13.9801C121.729 14.4314 122.03 15.0403 122.03 15.8066C122.03 16.3734 121.866 16.8668 121.538 17.2866C121.22 17.696 120.772 18.0162 120.191 18.2471C119.611 18.478 118.927 18.5935 118.139 18.5935Z" fill="#0B8396"/>
<path d="M123.41 18.3258V15.8066H125.971V18.3258H123.41Z" fill="#64B647"/>
<path d="M128.607 18.3258V9.77603H130.889V18.3258H128.607ZM127.359 11.4136V9.77603H130.889V11.4136H127.359ZM129.445 8.75257C128.996 8.75257 128.662 8.64235 128.443 8.42192C128.235 8.19098 128.131 7.90756 128.131 7.57166C128.131 7.21476 128.235 6.92609 128.443 6.70566C128.662 6.48522 128.996 6.375 129.445 6.375C129.893 6.375 130.222 6.48522 130.43 6.70566C130.638 6.92609 130.742 7.21476 130.742 7.57166C130.742 7.90756 130.638 8.19098 130.43 8.42192C130.222 8.64235 129.893 8.75257 129.445 8.75257Z" fill="#64B647"/>
<path d="M133.519 18.3258V9.77603H135.325V13.4447H135.161C135.161 12.5735 135.282 11.8492 135.522 11.2719C135.763 10.684 136.119 10.2431 136.59 9.94923C137.071 9.65531 137.668 9.50836 138.379 9.50836H138.478C139.539 9.50836 140.344 9.83901 140.891 10.5003C141.438 11.1511 141.712 12.1274 141.712 13.429V18.3258H139.43V13.24C139.43 12.7152 139.271 12.2901 138.954 11.9647C138.647 11.6392 138.221 11.4765 137.673 11.4765C137.115 11.4765 136.661 11.6445 136.311 11.9804C135.971 12.3058 135.802 12.7467 135.802 13.303V18.3258H133.519Z" fill="#64B647"/>
<path d="M144.379 18.3258V9.57134C144.379 8.59512 144.658 7.87607 145.216 7.4142C145.785 6.94184 146.623 6.70566 147.728 6.70566H148.845V8.39042H147.564C147.225 8.39042 146.962 8.47965 146.776 8.6581C146.601 8.82605 146.513 9.06748 146.513 9.38239V18.3258H144.379ZM143.263 11.5238V9.91774H148.992V11.5238H143.263Z" fill="#64B647"/>
<path d="M154.656 18.625C153.867 18.625 153.172 18.5043 152.57 18.2629C151.968 18.0214 151.46 17.696 151.044 17.2866C150.628 16.8668 150.31 16.3944 150.091 15.8695C149.883 15.3447 149.779 14.7988 149.779 14.232V13.9014C149.779 13.3135 149.889 12.7572 150.108 12.2323C150.338 11.697 150.66 11.2246 151.076 10.8152C151.503 10.3954 152.018 10.0699 152.62 9.83901C153.222 9.59758 153.9 9.47686 154.656 9.47686C155.411 9.47686 156.089 9.59758 156.691 9.83901C157.293 10.0699 157.802 10.3954 158.218 10.8152C158.645 11.2246 158.968 11.697 159.187 12.2323C159.406 12.7572 159.515 13.3135 159.515 13.9014V14.232C159.515 14.7988 159.406 15.3447 159.187 15.8695C158.979 16.3944 158.667 16.8668 158.251 17.2866C157.835 17.696 157.326 18.0214 156.724 18.2629C156.122 18.5043 155.433 18.625 154.656 18.625ZM154.656 16.7513C155.214 16.7513 155.684 16.6358 156.068 16.4049C156.451 16.1635 156.741 15.8433 156.938 15.4444C157.135 15.035 157.233 14.5732 157.233 14.0588C157.233 13.534 157.129 13.0721 156.921 12.6732C156.724 12.2638 156.429 11.9437 156.035 11.7127C155.652 11.4713 155.192 11.3506 154.656 11.3506C154.119 11.3506 153.654 11.4713 153.26 11.7127C152.877 11.9437 152.581 12.2638 152.373 12.6732C152.165 13.0721 152.061 13.534 152.061 14.0588C152.061 14.5732 152.16 15.035 152.357 15.4444C152.565 15.8433 152.861 16.1635 153.244 16.4049C153.627 16.6358 154.097 16.7513 154.656 16.7513Z" fill="#64B647"/>
</svg>
