<svg width="10" height="14" viewBox="0 0 10 14" fill="none" xmlns="http://www.w3.org/2000/svg">
<path d="M1.66667 0C0.747396 0 0 0.784766 0 1.75V12.25C0 13.2152 0.747396 14 1.66667 14H8.33333C9.2526 14 10 13.2152 10 12.25V4.375H6.66667C6.20573 4.375 5.83333 3.98398 5.83333 3.5V0H1.66667ZM6.66667 0V3.5H10L6.66667 0ZM2.91667 7H7.08333C7.3125 7 7.5 7.19688 7.5 7.4375C7.5 7.67812 7.3125 7.875 7.08333 7.875H2.91667C2.6875 7.875 2.5 7.67812 2.5 7.4375C2.5 7.19688 2.6875 7 2.91667 7ZM2.91667 8.75H7.08333C7.3125 8.75 7.5 8.94687 7.5 9.1875C7.5 9.42813 7.3125 9.625 7.08333 9.625H2.91667C2.6875 9.625 2.5 9.42813 2.5 9.1875C2.5 8.94687 2.6875 8.75 2.91667 8.75ZM2.91667 10.5H7.08333C7.3125 10.5 7.5 10.6969 7.5 10.9375C7.5 11.1781 7.3125 11.375 7.08333 11.375H2.91667C2.6875 11.375 2.5 11.1781 2.5 10.9375C2.5 10.6969 2.6875 10.5 2.91667 10.5Z" fill="#888888"/>
</svg>
