<svg width="16" height="16" viewBox="0 0 16 16" fill="none" xmlns="http://www.w3.org/2000/svg">
<path d="M7.34725 1.14218C7.76114 0.953503 8.23892 0.953503 8.6528 1.14218L14.725 3.90389C14.9611 4.01053 15.1111 4.24296 15.1111 4.49999C15.1111 4.75702 14.9611 4.98944 14.725 5.09608L8.6528 7.8578C8.23892 8.04647 7.76114 8.04647 7.34725 7.8578L1.27503 5.09608C1.03892 4.98671 0.888916 4.75428 0.888916 4.49999C0.888916 4.24569 1.03892 4.01053 1.27503 3.90389L7.34725 1.14218ZM13.2472 6.73124L14.725 7.40389C14.9611 7.51053 15.1111 7.74296 15.1111 7.99999C15.1111 8.25702 14.9611 8.48944 14.725 8.59608L8.6528 11.3578C8.23892 11.5465 7.76114 11.5465 7.34725 11.3578L1.27503 8.59608C1.03892 8.48671 0.888916 8.25428 0.888916 7.99999C0.888916 7.74569 1.03892 7.51053 1.27503 7.40389L2.7528 6.73124L6.97503 8.65077C7.2964 8.79669 7.64611 8.87225 8.00003 8.87225C8.35394 8.87225 8.70365 8.79669 9.02503 8.65077L13.2472 6.73124ZM9.02503 12.1508L13.2472 10.2312L14.725 10.9039C14.9611 11.0105 15.1111 11.243 15.1111 11.5C15.1111 11.757 14.9611 11.9894 14.725 12.0961L8.6528 14.8578C8.23892 15.0465 7.76114 15.0465 7.34725 14.8578L1.27503 12.0961C1.03892 11.9867 0.888916 11.7543 0.888916 11.5C0.888916 11.2457 1.03892 11.0105 1.27503 10.9039L2.7528 10.2312L6.97503 12.1508C7.2964 12.2967 7.64611 12.3723 8.00003 12.3723C8.35394 12.3723 8.70365 12.2967 9.02503 12.1508Z" fill="#ED5248"/>
</svg>
