<svg width="16" height="16" viewBox="0 0 16 16" fill="none" xmlns="http://www.w3.org/2000/svg">
<g clip-path="url(#clip0_2008_13757)">
<path d="M2.4 4.75C2.4 3.88805 2.73714 3.0614 3.33726 2.4519C3.93737 1.84241 4.75131 1.5 5.6 1.5C6.44869 1.5 7.26263 1.84241 7.86274 2.4519C8.46286 3.0614 8.8 3.88805 8.8 4.75C8.8 5.61195 8.46286 6.4386 7.86274 7.0481C7.26263 7.65759 6.44869 8 5.6 8C4.75131 8 3.93737 7.65759 3.33726 7.0481C2.73714 6.4386 2.4 5.61195 2.4 4.75ZM0 13.7459C0 11.2449 1.995 9.21875 4.4575 9.21875H6.7425C9.205 9.21875 11.2 11.2449 11.2 13.7459C11.2 14.1623 10.8675 14.5 10.4575 14.5H0.7425C0.3325 14.5 0 14.1623 0 13.7459ZM15.2325 14.5H11.7875C11.9225 14.2613 12.0025 13.9846 12.0025 13.6875V13.4844C12.0025 11.9432 11.325 10.5594 10.2575 9.63008C10.3175 9.62754 10.375 9.625 10.435 9.625H11.97C14.195 9.625 16 11.4582 16 13.7205C16 14.1521 15.655 14.5 15.2325 14.5ZM10.8 8C10.025 8 9.325 7.68008 8.8175 7.16465C9.31 6.48926 9.6 5.65391 9.6 4.75C9.6 4.06953 9.435 3.42715 9.1425 2.86348C9.6075 2.51816 10.18 2.3125 10.8 2.3125C12.3475 2.3125 13.6 3.58457 13.6 5.15625C13.6 6.72793 12.3475 8 10.8 8Z" fill="#85BFE7"/>
</g>
<defs>
<clipPath id="clip0_2008_13757">
<rect width="16" height="16" fill="white"/>
</clipPath>
</defs>
</svg>
