<svg width="68" height="64" viewBox="0 0 68 64" fill="none" xmlns="http://www.w3.org/2000/svg">
<path d="M54.0001 57.3334C50.3001 57.3334 47.3334 54.3334 47.3334 50.6667C47.3334 46.9667 50.3001 44.0001 54.0001 44.0001C55.7682 44.0001 57.4639 44.7025 58.7141 45.9527C59.9644 47.2029 60.6668 48.8986 60.6668 50.6667C60.6668 52.4349 59.9644 54.1305 58.7141 55.3808C57.4639 56.631 55.7682 57.3334 54.0001 57.3334ZM54.0001 37.3334C50.4639 37.3334 47.0725 38.7382 44.572 41.2387C42.0715 43.7391 40.6668 47.1305 40.6667 50.6667C40.6668 54.203 42.0715 57.5943 44.572 60.0948C47.0725 62.5953 50.4639 64.0001 54.0001 64.0001C57.5363 64.0001 60.9277 62.5953 63.4282 60.0948C65.9287 57.5943 67.3334 54.203 67.3334 50.6667C67.3334 47.1305 65.9287 43.7391 63.4282 41.2387C60.9277 38.7382 57.5363 37.3334 54.0001 37.3334ZM34.0001 31.0001C33.1684 31.0001 32.3448 31.1639 31.5764 31.4822C30.808 31.8005 30.1098 32.267 29.5217 32.8551C28.9336 33.4432 28.4671 34.1414 28.1488 34.9098C27.8306 35.6781 27.6667 36.5017 27.6667 37.3334C27.6667 39.0131 28.334 40.624 29.5217 41.8118C30.7095 42.9995 32.3204 43.6667 34.0001 43.6667C35.6798 43.6667 37.2907 42.9995 38.4784 41.8118C39.6662 40.624 40.3334 39.0131 40.3334 37.3334C40.3334 36.5017 40.1696 35.6781 39.8513 34.9098C39.533 34.1414 39.0665 33.4432 38.4784 32.8551C37.8903 32.267 37.1921 31.8005 36.4237 31.4822C35.6553 31.1639 34.8318 31.0001 34.0001 31.0001ZM14.0001 57.3334C10.3001 57.3334 7.33342 54.3334 7.33342 50.6667C7.33342 46.9667 10.3001 44.0001 14.0001 44.0001C15.7682 44.0001 17.4639 44.7025 18.7141 45.9527C19.9644 47.2029 20.6667 48.8986 20.6667 50.6667C20.6667 52.4349 19.9644 54.1305 18.7141 55.3808C17.4639 56.631 15.7682 57.3334 14.0001 57.3334ZM14.0001 37.3334C10.4639 37.3334 7.07248 38.7382 4.57199 41.2387C2.07151 43.7391 0.666748 47.1305 0.666748 50.6667C0.666748 54.203 2.07151 57.5943 4.57199 60.0948C7.07248 62.5953 10.4639 64.0001 14.0001 64.0001C17.5363 64.0001 20.9277 62.5953 23.4282 60.0948C25.9287 57.5943 27.3334 54.203 27.3334 50.6667C27.3334 47.1305 25.9287 43.7391 23.4282 41.2387C20.9277 38.7382 17.5363 37.3334 14.0001 37.3334ZM34.0001 7.33341C35.7682 7.33341 37.4639 8.03579 38.7141 9.28604C39.9644 10.5363 40.6667 12.232 40.6667 14.0001C40.6667 15.7682 39.9644 17.4639 38.7141 18.7141C37.4639 19.9644 35.7682 20.6667 34.0001 20.6667C30.3001 20.6667 27.3334 17.6667 27.3334 14.0001C27.3334 10.3001 30.3001 7.33341 34.0001 7.33341ZM34.0001 27.3334C37.5363 27.3334 40.9277 25.9287 43.4282 23.4282C45.9287 20.9277 47.3334 17.5363 47.3334 14.0001C47.3334 10.4639 45.9287 7.07248 43.4282 4.57199C40.9277 2.07151 37.5363 0.666748 34.0001 0.666748C30.4639 0.666748 27.0725 2.07151 24.572 4.57199C22.0715 7.07248 20.6667 10.4639 20.6667 14.0001C20.6667 17.5363 22.0715 20.9277 24.572 23.4282C27.0725 25.9287 30.4639 27.3334 34.0001 27.3334Z" fill="black"/>
</svg>
