<svg width="68" height="68" viewBox="0 0 68 68" fill="none" xmlns="http://www.w3.org/2000/svg">
<path d="M34.0001 0.666748C29.6227 0.666748 25.2882 1.52894 21.244 3.2041C17.1998 4.87925 13.5251 7.33457 10.4299 10.4299C4.17864 16.6811 0.666748 25.1595 0.666748 34.0001C0.666748 42.8406 4.17864 51.3191 10.4299 57.5703C13.5251 60.6656 17.1998 63.1209 21.244 64.7961C25.2882 66.4712 29.6227 67.3334 34.0001 67.3334C42.8406 67.3334 51.3191 63.8215 57.5703 57.5703C63.8215 51.3191 67.3334 42.8406 67.3334 34.0001H60.6668C60.6668 41.0725 57.8572 47.8553 52.8563 52.8563C47.8553 57.8572 41.0725 60.6668 34.0001 60.6668C26.9276 60.6668 20.1449 57.8572 15.1439 52.8563C10.1429 47.8553 7.33342 41.0725 7.33342 34.0001C7.33342 26.9276 10.1429 20.1449 15.1439 15.1439C20.1449 10.1429 26.9276 7.33342 34.0001 7.33342V0.666748ZM56.6001 4.00008C56.0334 4.00008 55.4334 4.23342 55.0001 4.66675L50.9334 8.70008L59.2668 17.0334L63.3334 13.0001C64.2001 12.1334 64.2001 10.6667 63.3334 9.83342L58.1668 4.66675C57.7334 4.23342 57.1668 4.00008 56.6001 4.00008ZM48.5668 11.0667L24.0001 35.6667V44.0001H32.3334L56.9001 19.4001L48.5668 11.0667Z" fill="black"/>
</svg>
