<svg width="54" height="71" viewBox="0 0 54 71" fill="none" xmlns="http://www.w3.org/2000/svg">
<path d="M26.9999 0.666748C38.0332 0.666748 46.9999 9.53341 46.9999 20.5001C46.9999 35.3667 26.9999 57.3334 26.9999 57.3334C26.9999 57.3334 6.99992 35.3667 6.99992 20.5001C6.99992 9.53341 15.9666 0.666748 26.9999 0.666748ZM26.9999 14.0001C25.2318 14.0001 23.5361 14.7025 22.2859 15.9527C21.0356 17.2029 20.3333 18.8986 20.3333 20.6667C20.3333 22.4349 21.0356 24.1305 22.2859 25.3808C23.5361 26.631 25.2318 27.3334 26.9999 27.3334C28.768 27.3334 30.4637 26.631 31.714 25.3808C32.9642 24.1305 33.6666 22.4349 33.6666 20.6667C33.6666 18.8986 32.9642 17.2029 31.714 15.9527C30.4637 14.7025 28.768 14.0001 26.9999 14.0001ZM53.6666 57.3334C53.6666 64.7001 41.7332 70.6667 26.9999 70.6667C12.2666 70.6667 0.333252 64.7001 0.333252 57.3334C0.333252 53.0334 4.39992 49.2001 10.6999 46.7667L12.8333 49.8001C9.23325 51.3001 6.99992 53.3667 6.99992 55.6667C6.99992 60.2667 15.9666 64.0001 26.9999 64.0001C38.0332 64.0001 46.9999 60.2667 46.9999 55.6667C46.9999 53.3667 44.7666 51.3001 41.1666 49.8001L43.2999 46.7667C49.5999 49.2001 53.6666 53.0334 53.6666 57.3334Z" fill="black"/>
</svg>
