<svg width="20" height="16" viewBox="0 0 20 16" fill="none" xmlns="http://www.w3.org/2000/svg">
<path d="M19.688 1.89405C18.9636 2.2153 18.1851 2.43243 17.3681 2.53008C18.2021 2.03016 18.8425 1.23857 19.1441 0.295403C18.3637 0.758239 17.4992 1.0944 16.5791 1.27559C15.8423 0.490562 14.7925 0 13.6308 0C11.4 0 9.59144 1.8085 9.59144 4.03914C9.59144 4.35571 9.62724 4.66401 9.69608 4.95963C6.33906 4.79119 3.36278 3.18311 1.37058 0.739371C1.02289 1.33594 0.8237 2.0298 0.8237 2.77003C0.8237 4.17136 1.53686 5.4077 2.62067 6.13202C1.9585 6.11106 1.33572 5.92937 0.791077 5.62684C0.790789 5.64369 0.790789 5.66061 0.790789 5.67761C0.790789 7.63467 2.18311 9.26724 4.03093 9.63825C3.69196 9.73058 3.33513 9.77991 2.9667 9.77991C2.70644 9.77991 2.45338 9.75463 2.20681 9.70746C2.72077 11.3122 4.21248 12.48 5.98 12.5126C4.59761 13.5959 2.85594 14.2417 0.963552 14.2417C0.637543 14.2417 0.315999 14.2226 0 14.1853C1.78754 15.3313 3.91074 16 6.19179 16C13.6214 16 17.6841 9.84515 17.6841 4.50752C17.6841 4.33238 17.6802 4.15818 17.6725 3.98499C18.4616 3.4155 19.1465 2.70407 19.688 1.89405Z" fill="#777777"/>
</svg>
