<svg width="17" height="17" viewBox="0 0 17 17" fill="none" xmlns="http://www.w3.org/2000/svg">
<path fill-rule="evenodd" clip-rule="evenodd" d="M8.20235 0.977013C3.67055 0.977013 0 4.64756 0 9.17936C0 12.8089 2.34792 15.8745 5.60836 16.9613C6.01847 17.0331 6.17227 16.787 6.17227 16.5717C6.17227 16.3769 6.16202 15.731 6.16202 15.044C4.10118 15.4234 3.56802 14.5416 3.40398 14.0803C3.3117 13.8444 2.91183 13.1165 2.56323 12.9217C2.27615 12.7679 1.86603 12.3885 2.55298 12.3783C3.19892 12.368 3.6603 12.9729 3.81409 13.219C4.5523 14.4596 5.73139 14.111 6.20303 13.8957C6.2748 13.3626 6.49011 13.0037 6.72593 12.7986C4.9009 12.5936 2.99386 11.8861 2.99386 8.74874C2.99386 7.85673 3.3117 7.11852 3.8346 6.54436C3.75258 6.3393 3.46549 5.49856 3.91662 4.37074C3.91662 4.37074 4.60357 4.15542 6.17227 5.21148C6.82846 5.02692 7.52566 4.93465 8.22286 4.93465C8.92006 4.93465 9.61726 5.02692 10.2734 5.21148C11.8421 4.14517 12.5291 4.37074 12.5291 4.37074C12.9802 5.49856 12.6931 6.3393 12.6111 6.54436C13.134 7.11852 13.4519 7.84648 13.4519 8.74874C13.4519 11.8964 11.5346 12.5936 9.70953 12.7986C10.0069 13.055 10.2632 13.5471 10.2632 14.3161C10.2632 15.4131 10.2529 16.2949 10.2529 16.5717C10.2529 16.787 10.4067 17.0434 10.8168 16.9613C12.4452 16.4116 13.8601 15.3651 14.8625 13.9691C15.8649 12.5732 16.4043 10.898 16.4047 9.17936C16.4047 4.64756 12.7341 0.977013 8.20235 0.977013Z" fill="#333333"/>
</svg>
