<svg width="31" height="30" viewBox="0 0 31 30" fill="none" xmlns="http://www.w3.org/2000/svg">
<path fill-rule="evenodd" clip-rule="evenodd" d="M5.88574 0H24.6357C27.7423 0 30.2607 2.5184 30.2607 5.625V24.375C30.2607 27.4816 27.7423 30 24.6357 30H5.88574C2.77914 30 0.260742 27.4816 0.260742 24.375V5.625C0.260742 2.5184 2.77914 0 5.88574 0ZM11.5107 22.5C11.5107 24.5711 9.83181 26.25 7.76074 26.25C5.68967 26.25 4.01074 24.5711 4.01074 22.5C4.01074 20.4289 5.68967 18.75 7.76074 18.75C9.83181 18.75 11.5107 20.4289 11.5107 22.5ZM4.01074 15C6.99443 15 9.85591 16.1853 11.9657 18.295C14.0755 20.4048 15.2607 23.2663 15.2607 26.25H19.0107C19.0107 22.2718 17.4304 18.4564 14.6173 15.6434C11.8043 12.8304 7.98899 11.25 4.01074 11.25V15ZM11.1861 8.92726C8.9112 7.98498 6.47303 7.5 4.01074 7.5V3.75C9.97811 3.75 15.7011 6.12053 19.9206 10.3401C24.1402 14.5597 26.5107 20.2826 26.5107 26.25H22.7607C22.7607 23.7877 22.2758 21.3495 21.3335 19.0747C20.3912 16.7998 19.0101 14.7328 17.269 12.9917C15.5279 11.2506 13.4609 9.86953 11.1861 8.92726Z" fill="#333333"/>
</svg>
