<svg width="450" height="66" viewBox="0 0 450 66" fill="none" xmlns="http://www.w3.org/2000/svg">
<path d="M212.329 4.72706H196.309V61.0592H212.329C225.46 61.0592 233.47 48.4534 233.47 32.8275C233.47 17.3328 225.329 4.85837 212.329 4.72706ZM212.329 64.4733H192.632V1.31299H212.329C228.086 1.31299 237.672 15.3632 237.672 32.8275C237.672 50.2917 228.086 64.3419 212.329 64.4733Z" fill="black"/>
<path d="M244.763 64.4733V1.31299H248.571V64.4733H244.763Z" fill="black"/>
<path d="M281.398 65.6552C265.641 65.6552 256.055 50.9484 256.055 32.8276C256.055 14.7068 265.641 0 281.398 0C292.034 0 299.782 6.56552 303.852 16.6764L300.175 17.9895C296.761 9.32303 290.327 3.41407 281.398 3.41407C268.267 3.41407 260.257 16.6764 260.257 32.9589C260.257 49.2414 268.398 62.3724 281.398 62.3724C293.347 62.3724 300.701 51.4736 301.882 37.1608H284.287V33.6154H306.216C305.953 51.4737 296.893 65.6552 281.398 65.6552Z" fill="black"/>
<path d="M314.226 64.4733V1.31299H317.902V64.4733H314.226Z" fill="black"/>
<path d="M346.79 4.72706V64.4733H342.982V4.85837H323.811V1.31299H366.093V4.72706H346.79Z" fill="black"/>
<path d="M381.851 4.72706L368.589 43.0697H394.851L381.851 4.72706ZM402.335 64.4733L396.032 46.0898H367.669L361.366 64.4733H357.165L380.013 1.31299H383.952L406.406 64.4733H402.335Z" fill="black"/>
<path d="M413.102 64.4735V1.44458H416.778V61.0595H450V64.4735H413.102Z" fill="black"/>
<path d="M0 64.4735V1.18188H18.6461V48.8475H44.7768V64.4735H0Z" fill="black"/>
<path d="M50.9478 64.4733V1.31299H69.4625V64.4733H50.9478Z" fill="black"/>
<path d="M118.836 64.4733L96.1192 27.4437V64.4733H77.6045V1.31299H96.7758L119.099 37.8173V1.31299H142.603V24.8175L161.249 1.31299H184.228L163.613 24.4236L185.936 64.4733H164.269L150.744 38.4738L142.603 47.5342V64.4733H118.836Z" fill="black"/>
</svg>
