<?xml version="1.0" encoding="utf-8"?>
<!-- Generator: Adobe Illustrator 25.0.1, SVG Export Plug-In . SVG Version: 6.00 Build 0)  -->
<svg version="1.1" id="Layer_1" xmlns="http://www.w3.org/2000/svg" xmlns:xlink="http://www.w3.org/1999/xlink" x="0px" y="0px"
	 viewBox="0 0 3748 1330.4" style="enable-background:new 0 0 3748 1330.4;" xml:space="preserve">
<style type="text/css">
	.st0{opacity:0.1;fill:url(#SVGID_1_);enable-background:new    ;}
	.st1{opacity:0.1;fill:url(#SVGID_2_);enable-background:new    ;}
	.st2{opacity:0.1;fill:url(#SVGID_3_);enable-background:new    ;}
	.st3{opacity:0.1;fill:url(#SVGID_4_);enable-background:new    ;}
	.st4{opacity:0.1;fill:url(#SVGID_5_);enable-background:new    ;}
	.st5{opacity:0.1;fill:#414242;enable-background:new    ;}
	.st6{opacity:0.1;fill:url(#SVGID_6_);enable-background:new    ;}
	.st7{opacity:0.1;fill:url(#SVGID_7_);enable-background:new    ;}
	.st8{opacity:0.1;fill:url(#SVGID_8_);enable-background:new    ;}
	.st9{opacity:0.1;fill:url(#SVGID_9_);enable-background:new    ;}
	.st10{opacity:0.5;}
	.st11{fill:#FFFFFF;}
	.st12{fill:#95B0C4;}
	.st13{fill:#ED5248;}
	.st14{fill:#C92B27;}
	.st15{fill:#F99370;}
	.st16{fill:#375A64;}
	.st17{fill:none;stroke:#231F20;stroke-width:2;stroke-miterlimit:10;}
	.st18{fill:#EAE735;}
	.st19{fill:#DDD31F;}
	.st20{fill:#C16256;}
	.st21{fill:#ABC1D7;}
	.st22{fill:#D4E5F1;}
	.st23{fill:#231F20;}
</style>
<linearGradient id="SVGID_1_" gradientUnits="userSpaceOnUse" x1="1806.5959" y1="-84.3391" x2="1980.2552" y2="-84.3391" gradientTransform="matrix(1 0 0 1 0 1326.4487)">
	<stop  offset="0" style="stop-color:#999999"/>
	<stop  offset="1" style="stop-color:#000000"/>
</linearGradient>
<path class="st0" d="M1806.6,1326.7c32.2-4.1,60.3-12.2,83.6-25.3c33.8-18.3,63.6-42.8,90.1-72.2l-72.6-71.7L1806.6,1326.7z"/>
<linearGradient id="SVGID_2_" gradientUnits="userSpaceOnUse" x1="1855.9316" y1="-291.0043" x2="1976.106" y2="-291.0043" gradientTransform="matrix(1 0 0 1 0 1326.4487)">
	<stop  offset="0" style="stop-color:#999999"/>
	<stop  offset="1" style="stop-color:#000000"/>
</linearGradient>
<path class="st1" d="M1900.4,1116.4l75.8-81.9c-24.9-27.7-54.2-49.7-87.2-66.9c-10.5-5.3-21.4-9.6-32.6-13l39.5,156.5
	C1897.2,1113,1898.7,1114.8,1900.4,1116.4z"/>
<linearGradient id="SVGID_3_" gradientUnits="userSpaceOnUse" x1="2126.332" y1="-153.3721" x2="2478.1833" y2="-505.2206" gradientTransform="matrix(1 0 0 1 0 1326.4487)">
	<stop  offset="0" style="stop-color:#999999"/>
	<stop  offset="1" style="stop-color:#000000"/>
</linearGradient>
<path class="st2" d="M2372.4,1001l212-217.3H2436l-221.4,236.4v144.3l74.6-77.5L2372.4,1001z"/>
<linearGradient id="SVGID_4_" gradientUnits="userSpaceOnUse" x1="2152.8945" y1="-985.8743" x2="2152.8945" y2="-172.4335" gradientTransform="matrix(1 0 0 1 0 1326.4487)">
	<stop  offset="0" style="stop-color:#999999"/>
	<stop  offset="1" style="stop-color:#000000"/>
</linearGradient>
<path class="st3" d="M2214.7,975.7V579.5h-123.5v737.8h123.5L2214.7,975.7L2214.7,975.7z"/>
<linearGradient id="SVGID_5_" gradientUnits="userSpaceOnUse" x1="2233.5259" y1="-445.4106" x2="2528.615" y2="12.8869" gradientTransform="matrix(1 0 0 1 0 1326.4487)">
	<stop  offset="0" style="stop-color:#999999"/>
	<stop  offset="1" style="stop-color:#000000"/>
</linearGradient>
<path class="st4" d="M2289.3,1087l160.6,230.3h141.5L2372.4,1001L2289.3,1087z"/>
<path class="st5" d="M2882.4,775.6c-43.6,0-81.1,4.1-112.1,12.2c-31.1,8.2-61.5,18.9-90.9,32.2l33.4,97.8c23.2-10,47.2-18,71.8-24.1
	c23.6-6.1,50.5-9,80.7-9c42.4,0,75,9.8,97.4,29.4c22.4,19.6,33.8,47.7,33.8,84.8v91.3c0.8,0.4,1.2,0.4,2,0.8v33.4
	c0,7-0.7,13.9-2,20.8v172h120.3V1001c0-71.3-19.2-126.8-57.5-166.3C3021,795.1,2961.9,775.6,2882.4,775.6z"/>
<linearGradient id="SVGID_6_" gradientUnits="userSpaceOnUse" x1="3131.0649" y1="-168.1092" x2="2786.5818" y2="-168.1092" gradientTransform="matrix(1 0 0 1 0 1326.4487)">
	<stop  offset="0" style="stop-color:#999999"/>
	<stop  offset="1" style="stop-color:#000000"/>
</linearGradient>
<path class="st6" d="M2988,1170.2c-6.9,13.9-17.1,25.7-29.8,35.5c-13.5,10.2-28.6,18-44.8,22.8c-18.2,5.5-37.2,8.3-56.3,8.2
	c-28.9,0-53.4-6.9-73.4-20.4c-20-13.5-29.8-33-29.8-58.7v-2c0-27.7,10.6-48.9,32.2-63.6c21.6-14.7,51.4-22.4,90.1-22.4
	c22.6-0.1,45.1,1.9,67.3,6.1c18.1,3.1,35.8,7.9,53,14.3v-78.3c-21.4-6.8-43.2-12.2-65.2-16.3c-22.4-4.1-50.1-6.1-82.4-6.1
	c-31,0-59.9,3.7-86.4,10.6c-26.5,6.9-49.3,17.5-68.9,31.8c-18.9,14-34.3,32.3-44.8,53.4c-10.6,21.6-16.3,46.9-16.3,75.8v2
	c0,26.9,5.3,50.5,15.5,71.3c10.6,20.4,24,37.9,41.6,51.4c17.1,13.9,37.1,24.1,59.9,31.4c23.5,7.1,48,10.7,72.6,10.6
	c40.4,0,74.6-7.3,103.1-22.4c28.1-14.7,51.4-33,69.7-54.6v65.6h0.8v-172C2994.9,1153.2,2992.3,1162.1,2988,1170.2z"/>
<linearGradient id="SVGID_7_" gradientUnits="userSpaceOnUse" x1="3258.3411" y1="-281.4371" x2="3681.0249" y2="-281.4371" gradientTransform="matrix(1 0 0 1 0 1326.4487)">
	<stop  offset="0" style="stop-color:#999999"/>
	<stop  offset="1" style="stop-color:#000000"/>
</linearGradient>
<path class="st7" d="M3692,828.1c-33-37.1-79.5-55.4-140.2-55.4c-20.8,0-39.6,2.4-55.9,7.7c-15.9,5.1-31,12.1-45.2,20.8
	c-13.4,8.4-25.6,18.5-36.3,30.2c-10.5,11.3-20.1,23.4-28.5,36.3v149.2c0-41.6,11-74.2,33-97.4c22-23.2,50.5-34.7,86-34.7
	c35.9,0,64,11.4,83.6,33.8s29.8,54.6,29.8,96.2v302.5h123.1V977.8C3741.3,915,3725,865.2,3692,828.1z"/>
<linearGradient id="SVGID_8_" gradientUnits="userSpaceOnUse" x1="3324.0671" y1="-721.2075" x2="3324.0671" y2="39.0469" gradientTransform="matrix(1 0 0 1 0 1326.4487)">
	<stop  offset="0" style="stop-color:#999999"/>
	<stop  offset="1" style="stop-color:#000000"/>
</linearGradient>
<path class="st8" d="M3385.8,783.7h-123.5v533.6h123.5V783.7z"/>
<path class="st5" d="M1651.7,930.1c13.5-15.4,30-27.9,48.5-36.7c18.7-9,39.5-13.5,61.6-13.5c31,0,57.1,6.1,78.3,18.8
	c20.3,11.9,38.9,26.5,55.4,43.2l-39.5-156.5c-26.9-8.2-57.9-12.2-92.9-12.2c-39.9,0-76.6,7.3-110.9,22.4
	c-33.2,14-63.2,34.7-88.1,60.7c-24.8,25.7-44.4,55.8-57.9,88.9c-13.9,33.8-20.8,69.7-20.8,108s6.9,74.2,20.8,107.6l115.8-180.2
	C1628.8,962.1,1638.8,945,1651.7,930.1z"/>
<linearGradient id="SVGID_9_" gradientUnits="userSpaceOnUse" x1="1691.1074" y1="-391.5202" x2="1722.4038" y2="64.5404" gradientTransform="matrix(1 0 0 1 0 1326.4487)">
	<stop  offset="0" style="stop-color:#999999"/>
	<stop  offset="1" style="stop-color:#000000"/>
</linearGradient>
<path class="st9" d="M1906.5,1156.7c-18.5,18.6-39.3,34.8-62,48.1c-22,12.6-47.3,18.8-76.2,18.8c-23.6,0-45.2-4.5-64.8-13.5
	c-19.1-8.7-36.3-21.2-50.5-36.7c-14.5-15.9-25.7-34.4-33-54.6c-7.9-21.7-11.9-44.6-11.8-67.7c0-23.6,3.7-45.7,11.8-66
	c0.5-1.4,1-2.7,1.6-4.1l-115.8,180.2c13.6,32.7,33.2,62.6,57.9,88.1c25,25.4,54.8,45.6,87.6,59.5c33.8,14.7,70.5,21.6,110.1,21.6
	c15,0.1,30-0.8,44.8-2.9l101.1-169.2L1906.5,1156.7z"/>
<g class="st10">
	<path class="st11" d="M2087.5,1373.7c24.3-3.1,45.6-9.2,63.2-19.1c25.6-13.9,48.1-32.3,68.1-54.5l-54.8-54.2L2087.5,1373.7z"/>
	<path class="st11" d="M2158.3,1086.3l57.3-61.9c-18.7-20.7-41.1-37.8-65.9-50.5c-7.9-4-16.2-7.3-24.6-9.9l29.9,118.3
		C2155.9,1083.7,2157,1085.1,2158.3,1086.3z"/>
	<path class="st11" d="M2515.1,1127.6l160.2-164.2h-112.2L2395.9,1142v109.1l56.4-58.5L2515.1,1127.6z"/>
	<path class="st11" d="M2395.9,1108.5V809h-93.3v557.6h93.3V1108.5z"/>
	<path class="st11" d="M2452.2,1192.6l121.4,174.1h106.9l-165.4-239.1L2452.2,1192.6z"/>
	<path class="st11" d="M2900.5,957.2c-33,0-61.3,3.1-84.7,9.2c-23.5,6.2-46.5,14.3-68.7,24.3l25.2,73.9
		c17.6-7.5,35.7-13.6,54.2-18.2c17.9-4.6,38.2-6.8,61-6.8c32,0,56.7,7.4,73.6,22.2c16.9,14.8,25.6,36,25.6,64.1v69
		c0.6,0.3,0.9,0.3,1.5,0.6v25.3c0,5.3-0.5,10.5-1.5,15.7v130h90.9v-239.1c0-53.9-14.5-95.8-43.4-125.7
		C3005.3,972,2960.6,957.2,2900.5,957.2z"/>
	<path class="st11" d="M2980.3,1255.4c-5.4,10.5-13.1,19.7-22.5,26.8c-10.2,7.7-21.6,13.6-33.9,17.3c-13.8,4.2-28.1,6.3-42.5,6.2
		c-21.9,0-40.4-5.2-55.5-15.4c-15.1-10.2-22.5-25-22.5-44.4v-1.5c0-20.9,8-37,24.3-48.1c16.3-11.1,38.8-16.9,68.1-16.9
		c17.1-0.1,34.1,1.5,50.8,4.6c13.7,2.4,27.1,6,40,10.8v-59.2c-16.2-5.1-32.6-9.2-49.3-12.3c-16.9-3.1-37.9-4.6-62.2-4.6
		c-22-0.1-44,2.6-65.3,8c-20,5.2-37.3,13.2-52.1,24c-14.3,10.6-25.9,24.4-33.9,40.4c-8,16.3-12.3,35.4-12.3,57.3v1.5
		c0,20.3,4,38.2,11.7,53.9c8,15.4,18.2,28.7,31.4,38.8c12.9,10.5,28,18.2,45.3,23.7c17.8,5.4,36.3,8.1,54.8,8
		c30.5,0,56.4-5.5,77.9-16.9c21.3-11.1,38.8-25,52.7-41.3v49.6h0.6v-130C2985.6,1242.6,2983.6,1249.3,2980.3,1255.4z"/>
	<path class="st11" d="M3512.4,996.9c-25-28-60.1-41.9-106-41.9c-15.7,0-29.9,1.8-42.2,5.9c-12,3.9-23.5,9.1-34.2,15.7
		c-10.1,6.3-19.4,14-27.4,22.8c-8,8.5-15.2,17.7-21.6,27.4v112.8c0-31.4,8.3-56.1,25-73.6c16.6-17.6,38.2-26.2,65-26.2
		c27.1,0,48.4,8.6,63.2,25.6s22.5,41.3,22.5,72.7v228.6h93V1110C3549.7,1062.6,3537.3,1025,3512.4,996.9z"/>
	<path class="st11" d="M3281,963.4h-93.4v403.3h93.4V963.4z"/>
	<path class="st11" d="M1970.4,1074c10.2-11.7,22.7-21.1,36.7-27.7c14.5-6.8,30.4-10.3,46.5-10.2c23.4,0,43.1,4.6,59.2,14.2
		c15.3,9,29.4,20,41.9,32.7l-29.9-118.3c-20.3-6.2-43.7-9.2-70.2-9.2c-30.2,0-57.9,5.5-83.8,16.9c-25.1,10.6-47.7,26.2-66.5,45.9
		c-38.5,39.9-59.9,93.3-59.5,148.8c0,29,5.2,56.1,15.7,81.3l87.5-136.2C1953.1,1098.2,1960.7,1085.2,1970.4,1074z"/>
	<path class="st11" d="M2163,1245.3c-14,14.1-29.7,26.3-46.8,36.4c-16.6,9.6-35.7,14.2-57.6,14.2c-17.9,0-34.2-3.4-49-10.2
		c-14.5-6.6-27.5-16-38.2-27.7c-10.9-12-19.4-26-25-41.3c-6-16.4-9-33.7-8.9-51.1c0-17.9,2.8-34.5,8.9-49.9c0.4-1,0.8-2.1,1.2-3.1
		l-87.5,136.2c10.2,24.8,25.1,47.3,43.7,66.5c18.9,19.2,41.4,34.5,66.2,45c25.6,11.1,53.3,16.3,83.2,16.3
		c11.3,0.1,22.7-0.6,33.9-2.2l76.4-127.9L2163,1245.3z"/>
</g>
<path class="st12" d="M2207.3,518.9c-4.7,17.9-8.4,37.6-1.7,55.6c11.9,26.4,45.4,28.5,70.3,23.5c3.9-0.5,11-1.2,10-6.2
	c-1.4-5.6-10.3-4-14.5-4.6c-45.3-3.3-52.1-18.1-37.5-59.4C2239.7,510.5,2213.3,501.6,2207.3,518.9z"/>
<path class="st13" d="M2206.4,518.5c-3.5,0.7-5.8,1.3-5.8,1.3s-1,12.5-2.4,31.7c-0.1,1.4-0.2,2.8-0.1,4.2c0,0,0,0,0,0l0,0
	c0.1,18.2,11.1,34.7,28,41.7c13.5,5.6,29.8,5.2,38.2,4.5c3.4-0.3,5.5-0.7,5.5-0.7c-3.7-7.7,0.3-15.7,0.3-15.7s-1.8-0.3-4.5-0.9
	c-6.9-1.4-20.1-4.3-26.1-7.2c-8.4-4.1-11.8-15-7.3-30.2c5.7-19.1,10.3-30.7,10.3-30.7C2236.7,508.8,2216.2,516.5,2206.4,518.5z"/>
<path class="st14" d="M2206.4,518.5c-3.5,0.7-5.8,1.3-5.8,1.3s-1,12.5-2.4,31.7c-0.1,1.4-0.2,2.8-0.1,4.2c0.2-0.7,5.3-23.8,9.8-32.7
	C2209,520.5,2208.2,519.1,2206.4,518.5z"/>
<path class="st14" d="M2181.5,279.2l23.6,25.1c-0.9,1.7-8.2,6.2-10.2,8.5c-1.5,1.2-17.5,20.1-19.3,22l-13.6-14.4l20.7-15.1
	c2.5-1.8,3.3-5.1,2-7.8c-2.6-6.3-8.4-10.8-7.6-17.2c0.3-1.3,1.7-2.1,3-1.8C2180.8,278.7,2181.2,278.9,2181.5,279.2z"/>
<path class="st14" d="M2203.5,307.4c0.8-0.9,1.3-1.9,1.7-3l-23.8-25.3c-0.9-1-2.5-1.1-3.5-0.1c-0.2,0.2-0.4,0.4-0.5,0.6
	c-1.8,3.5-2.6,10.6,7.8,22.8c0,0,4.9,2.9,9.9,10.5C2195,312.8,2200.4,311,2203.5,307.4z"/>
<path class="st14" d="M2177.3,279.6l26.2,27.8c0.8-0.9,1.3-1.9,1.7-3l-23.8-25.3c-0.9-1-2.5-1.1-3.5-0.1
	C2177.6,279.1,2177.4,279.3,2177.3,279.6z"/>
<path class="st14" d="M2033,312.3l34-5.4c0.9,1.7,0.5,10.2,1.3,13.2c0.2,1.3,1.7,8.2,2.1,9.5l0.7,19.6l-15,2.4l-0.8-25.7
	c-0.1-3-2.3-5.6-5.4-6.1c-6.7-1.4-13.6,0.9-18.4-3.4c-0.9-1-0.8-2.6,0.2-3.5C2032.1,312.6,2032.5,312.4,2033,312.3z"/>
<path class="st14" d="M2068.5,310c-0.3-1.1-0.8-2.2-1.6-3.1l-34.3,5.5c-1.3,0.2-2.3,1.5-2.1,2.8c0,0.3,0.1,0.5,0.3,0.8
	c1.9,3.5,7.3,8.1,23.2,6.4c0,0,5.1-2.5,14.2-2.3C2068.3,320.1,2069.8,314.6,2068.5,310z"/>
<path class="st14" d="M2030.8,316l37.7-6c-0.3-1.1-0.8-2.2-1.6-3.1l-34.3,5.5c-1.3,0.2-2.3,1.5-2.1,2.8
	C2030.6,315.5,2030.7,315.8,2030.8,316z"/>
<path class="st13" d="M2178.6,303.9c-1.4,0.9-3.1,1.9-4.8,3.2c-25.6,18.4-82.8,79.1-46,130c0,0-49-38.5-53.7-106.1l0,0
	c-0.1-1.9-0.2-3.8-0.3-5.8c-1.1-0.5-2.2-0.9-3.3-1.2l0,0c-6.7-2.1-14,0.1-18.4,5.6c0,0-0.7,2.4-1.7,6.8
	c-5.5,26.3-17.2,122.3,95.3,167.3c2.7,1.1,49.5-67.4,49.5-67.4c-20.5-35.7-55.5-37.8-4.3-112.9c1.1-1.7,2.3-3.4,3.6-5.1
	C2196.5,315.5,2194.4,308.3,2178.6,303.9z"/>
<path class="st14" d="M2073.9,325.2c-1.1-0.5-2.2-0.9-3.3-1.2l0,0c-0.2,2.1-0.4,4.1-0.4,6.2c0.2,48,19.5,75.7,40.2,97
	c8.4,8.7,17.6,10,17.6,10s-49-38.5-53.7-106.1l0,0C2074,329.1,2073.9,327.1,2073.9,325.2z"/>
<path class="st14" d="M2165.8,433.3c-0.3,0.4-0.2,0.9,0.1,1.1c0.3,0.3,0.8,0.2,1.1-0.1c4.1-4.9,8.1-7.5,11.6-7.6
	c1.4,0,2.7,0.4,3.8,1.2c-6.9,5-12.9,11.1-17.9,18c-0.2,0.4-0.1,0.9,0.2,1.1c0.4,0.2,0.9,0.1,1.1-0.2c5-7,11.2-13.2,18.3-18.2
	c0.4-0.3,0.4-0.8,0.2-1.1c0,0,0,0,0-0.1c-1.5-1.5-3.6-2.4-5.7-2.3C2174.6,425.1,2170.3,427.9,2165.8,433.3L2165.8,433.3z"/>
<path class="st14" d="M2144.1,481C2144,481.1,2144,481.1,2144.1,481c-6,10.2-6.4,16.8-6.4,17.1c0,0.4,0.3,0.8,0.8,0.8
	c0.4,0,0.8-0.3,0.8-0.7c0-0.1,0.5-6.5,6.2-16.3c0.2-0.4,0.1-0.9-0.3-1.1C2144.8,480.6,2144.3,480.7,2144.1,481L2144.1,481z"/>
<path class="st14" d="M2138.3,454.7c-0.1,0.1-0.1,0.2-0.1,0.2c-1.2,3.8,2.1,8.4,9.8,13.6c3.7,2.4,7.6,4.6,11.6,6.5
	c0.4,0.2,0.9,0,1.1-0.4c0.2-0.4,0-0.9-0.4-1.1l0,0c-6-2.8-20.5-10.8-20.7-17l9.8,7.6c0.4,0.3,0.9,0.2,1.1-0.1
	c0.3-0.4,0.2-0.9-0.1-1.1l0,0l-10.9-8.4C2139.1,454.3,2138.6,454.4,2138.3,454.7L2138.3,454.7z"/>
<path class="st15" d="M2243.4,505.3c5.4-5.6,7.7-13.8,8.9-21.1c2.8-15.6-0.7-30.8-2.1-46.2c-0.7-18.2,3.5-37.6,9-55.2
	c2-5.6-6.4-9.5-9.4-4.3c-11.1,18-19,37.2-21.8,58.5C2226,453.3,2230.3,518.1,2243.4,505.3z"/>
<path class="st12" d="M2269.2,375.4c-1.3-1.6-4.5,2-6.4,2.1c0.6-2.1,1.4-4.2,2.5-6.2c2.6-3.1,5.4-6,8.4-8.8c1.7-5.9-9.3,5-10.6,5.9
	c0,0,0,0-0.1,0c2-3.7,4.3-7.3,6.8-10.8c0.4-6.5-8.9,8.1-9.9,9.4l0,0c1.3-3.8,3.1-7.5,5.3-10.9c-0.2-6.5-8.5,9-9.1,10.5h0
	c0.6-3.2,1.6-6.3,2.7-9.2c-1.1-6.1-6.3,8.4-6.7,9.8c-0.7,0.9-2.6,6.5-3.2,13.8c-0.2,2.4,6,4.6,8.2,3.6c1.8-1,3.6-2.1,5.1-3.5
	C2264.1,380,2269.7,377.8,2269.2,375.4z"/>
<path class="st12" d="M2249.9,520.7l-7.5-4.3c-3.7,1.2-6.2-3.8-5-6c1.7-3.3,9.7-6.7,11.8-6.9l8.3,5L2249.9,520.7z"/>
<path class="st12" d="M2268.4,512.9c-0.2-0.1-0.5-0.2-0.7-0.2c0,0.4-8.2-3.3-13.9-6.5c-5.4,4-7.8,10.8-8.2,12
	c7.2,4.1,14.2,7.2,18.9,8.4C2272.7,528.3,2276.2,515.8,2268.4,512.9z"/>
<path class="st13" d="M2198.1,435.4c-4.1-3.5-7.1-6.1-7.1-6.1s-41.9,38.6-45.2,74.2c0,0,63,37,96.5,12.9c-0.9-0.3-11.7-3.8,6.8-12.9
	c0.8-2.7,2.6-7.9,2.6-7.9c2.3-19-12.8-30-28.9-41.5c-3.7-2.6-7.4-5.2-11.1-8C2207.2,442.9,2202.1,438.8,2198.1,435.4L2198.1,435.4z"
	/>
<path class="st13" d="M2275.2,540.1c0,0,9.8,6.2,17-1.6l-2-7.6L2275.2,540.1z"/>
<path class="st12" d="M2276.6,506.5c-6.3-1.5-13.7-2.2-19.5,0.8l0,0c-2.3,1.3-4.3,3.1-5.7,5.3c-9.5,12.1-0.2,34.8,15.9,28.9
	c5.4-2.5,11.6-0.6,16.8-2.2c8.4-1.8,12.2-11.9,9-19.4C2290.2,513,2284.2,508.6,2276.6,506.5z"/>
<path class="st13" d="M2276.6,506.5c-6.3-1.5-13.7-2.2-19.5,0.8l0,0c-0.5,0.3-0.9,0.5-1.4,0.8c5-2.1,13.3-1,13.3-1l6,3.5
	c1.8,4.6,6,7.8,10.9,8.3c-6.6,8.4-2,14.1-2,14.1c-1,2.1-1.5,4.4-1.4,6.7c9.2-1.1,13.9-11.6,10.5-19.8
	C2290.2,513,2284.2,508.6,2276.6,506.5z"/>
<path class="st13" d="M2290.7,515.7c-3.3,3.4-13.3,0.9-15.8-11.3C2275,504.4,2292.4,506.2,2290.7,515.7z"/>
<path class="st12" d="M2275.2,501.5c-7.3-1.3-8.9,7.6-1.6,8.9C2280.8,511.8,2282.5,502.9,2275.2,501.5z"/>
<path class="st16" d="M2272.9,503.1c-0.1,0.2,0,0.4,0.2,0.5c0,0,0.1,0,0.1,0c3.8,0.2,5.1,2.1,3,4.4c-0.3,0.3,0.2,0.9,0.5,0.5
	c2.3-2.3,1.5-5.4-3.4-5.6C2273.1,502.8,2273,502.9,2272.9,503.1z"/>
<path class="st16" d="M2272.1,506.4c-0.3,1.1,3.7,0.4,4.9-2.1c0.1-0.2,0-0.4-0.2-0.5c-0.2-0.1-0.4,0-0.5,0.2
	C2275,506.5,2272.4,505.8,2272.1,506.4z"/>
<path class="st13" d="M2290.7,515.7c12.7,1.4,8.4,14.9,13.6,19.5C2304.4,535.2,2285,537.2,2290.7,515.7z"/>
<path class="st13" d="M2290.7,515.7c0,0,1.5,15.1,9.1,24.4C2287.5,545.2,2277.2,524.9,2290.7,515.7z"/>
<path class="st13" d="M2288.9,526.8c0,0-10.9,13.1-0.1,22.8C2288.8,549.5,2299.9,539.2,2288.9,526.8z"/>
<path class="st13" d="M2299,520.8c0,0,3.7-15.8-13.8-13.5l8.1,14.2L2299,520.8z"/>
<path class="st14" d="M2198.1,435.4c7.4,11.3,16.8,21.1,27.7,28.9c0,0-2.8-6-3.1-10.2c-3.7-2.6-7.4-5.2-11.1-8
	C2207.2,442.9,2202.1,438.8,2198.1,435.4z"/>
<path class="st14" d="M2073.9,325.2c-1.1-0.5-2.2-0.9-3.3-1.2l0,0c-6.7-2.1-14,0.1-18.4,5.6c0,0-0.7,2.4-1.7,6.8c0,0,8-7.7,19.6-6.2
	c1.4,0.2,2.7,0.5,4,0.9l0,0C2074,329.1,2073.9,327.1,2073.9,325.2z"/>
<path class="st14" d="M2178.6,303.9c-1.4,0.9-3.1,1.9-4.8,3.2c14.7,5.1,17.2,15.9,17.3,16.2c1.1-1.7,2.3-3.4,3.6-5.1
	C2196.5,315.5,2194.4,308.3,2178.6,303.9z"/>
<path class="st13" d="M2246.5,381.1c0,0-1,1.5-2.7,4.4c-7.6,12.8-14.1,26.3-19.5,40.2c-10.5,26.9,5.7,49.7,10.3,56.7
	s14.6,21.2,14.6,21.2c6.7-14.2,9-30.2,6.6-45.7c-3.2-20.3-3.9-46.5,2.5-66.8c0.4-1.4,0.9-2.8,1.4-4.1
	C2260.4,384.9,2255.4,379.3,2246.5,381.1z"/>
<path class="st14" d="M2269.9,585.4c-1.4-0.5-2.9-0.8-4.5-0.9c-4.8,8.1-1.4,17.3-1.4,17.3c1.9,0.1,3.8-0.1,5.5-0.7
	C2266.4,593.5,2269.9,585.4,2269.9,585.4z"/>
<path class="st14" d="M2246.5,381.1c-1.2,1.3-2.1,2.8-2.7,4.4l0,0c6.7-2.3,14.5,5.5,14.5,5.5l0,0c0.7-1.2,1.2-2.6,1.4-4.1
	C2259.6,386.9,2255.5,378.6,2246.5,381.1z"/>
<path class="st12" d="M2276.3,587.5c0.4-0.1,0.6-0.2,0.9-0.2c0.3-0.1,0.6-0.1,0.9-0.2c0.6-0.1,1.2-0.2,1.7-0.3
	c1.2-0.2,2.4-0.2,3.6-0.2c1.3,0,2.5,0.2,3.7,0.5c1.3,0.4,2.5,1,3.5,2c0.6,0.6,0.7,1.6,0.1,2.2c-0.6,0.6-1.5,0.7-2.1,0.2l-0.1-0.1
	c-0.7-0.5-1.5-0.8-2.3-0.9c-0.9-0.2-1.9-0.2-2.8-0.1c-1,0.1-2,0.2-2.9,0.5c-0.5,0.1-1,0.2-1.5,0.4l-0.7,0.2
	c-0.2,0.1-0.5,0.2-0.7,0.2c-1.2,0.5-2.5-0.1-2.9-1.2c-0.5-1.2,0.1-2.5,1.2-2.9C2276.1,587.6,2276.2,587.5,2276.3,587.5L2276.3,587.5
	z"/>
<path class="st17" d="M2950.3,865.7c-65.6-115.5-173.1-212.2-313.3-254.9c-203.7-61.9-399.9-6.5-601.1,30.4
	c-64,11.7-129.6,20-194.6,14.4c-84.6-7.3-158.4-44.8-223.1-91.4c-147.2-106-235.3-256.7-343-391.4c-65.6-82-186.4-137.5-295.8-159
	C898-2.2,809.2-1.8,726.3,1.8c-16.8,0.7-33.6,1.7-50.3,3"/>
<path class="st12" d="M2719,636.7c-2.6,2.9-6.4-0.5-2.1-1.8l0,0C2718.3,633.4,2720.4,635.3,2719,636.7z"/>
<path class="st12" d="M2717.1,635.1c-3.6,2.8-6.1-1.9-1.9-2c-0.1,0,0.4-0.2,0.3-0.1c0.5-0.5,1.4-0.5,1.9,0c0.5,0.5,0.5,1.4,0,1.9
	C2717.3,635,2717.2,635,2717.1,635.1z"/>
<path class="st12" d="M2714.9,633.7l-1.5,0.6c-2.1,0.7-2.5-2.1-0.7-2.7l1.5-0.6C2716.3,630.3,2716.7,633.1,2714.9,633.7z"/>
<path class="st12" d="M2712.7,632.2l-1.5,0.6c-2.1,0.7-2.5-2.1-0.7-2.7l1.5-0.6C2714.1,628.8,2714.5,631.6,2712.7,632.2z"/>
<path class="st12" d="M2276.3,600.6c0.1,0.1,4.4,4.3,7.4,5.2l-0.2-6.3L2276.3,600.6z"/>
<path class="st12" d="M2282.7,604.3c-1.6-4.4,4.3-5.8,3.2-0.8l0-0.1C2286.6,605.8,2283.4,606.5,2282.7,604.3z"/>
<path class="st12" d="M2285.5,603.5c-0.8-5.3,5.7-4.5,3.3-0.4c0-0.1,0,0.5,0,0.4C2289.2,606,2285.8,605.7,2285.5,603.5z"/>
<path class="st12" d="M2288.3,602.4l0.3-1.8c0.5-2.5,3.8-1,3.3,1.1l-0.3,1.8C2291.2,605.9,2287.9,604.4,2288.3,602.4z"/>
<path class="st12" d="M2290.9,601.6l0.3-1.8c0.5-2.5,3.8-1,3.3,1.1l-0.3,1.8C2293.8,605.2,2290.5,603.6,2290.9,601.6z"/>
<path class="st12" d="M2704.8,629.7c1.2,1.6-2.9,4.7-1.9,6.2l7.4,7.6l-2.1,2.4c-1.7,1.6-9.6,0.4-10.2-1.9c-0.4-2.5-0.3-5,0.3-7.5
	C2698.9,634.6,2702.1,628,2704.8,629.7z"/>
<path class="st18" d="M2367.4,766.9l11.6-32.5c1.9,0.1,9.2,4.5,12.2,5.2c1.8,0.8,25.9,6.5,28.4,7.2l-6.7,18.6l-22.9-11.6
	c-2.7-1.4-6-0.6-7.9,1.8c-4.4,5.2-5.8,12.4-11.8,14.6c-1.3,0.3-2.7-0.5-3-1.9C2367.2,767.8,2367.2,767.3,2367.4,766.9z"/>
<path class="st18" d="M2382.5,734.5c-1.1-0.3-2.3-0.3-3.5-0.1l-11.7,32.7c-0.5,1.3,0.2,2.7,1.5,3.2c0.3,0.1,0.5,0.1,0.8,0.1
	c4,0,10.6-2.5,16.8-17.3c0,0,0.3-5.7,4.9-13.6C2391.2,739.6,2387.1,735.6,2382.5,734.5z"/>
<path class="st18" d="M2369.6,770.5l12.8-35.9c-1.1-0.3-2.3-0.3-3.5-0.1l-11.7,32.7c-0.5,1.3,0.2,2.7,1.5,3.2
	C2369,770.4,2369.3,770.5,2369.6,770.5z"/>
<path class="st18" d="M2481.8,947.6l-27.7-20.5c0.6-1.8,6.9-7.5,8.5-10.2c1.2-1.5,13.7-22.9,15-25.1l15.9,11.8l-17.7,18.6
	c-2.1,2.2-2.3,5.6-0.6,8.1c3.7,5.7,10.2,9.1,10.5,15.5c-0.1,1.4-1.3,2.4-2.7,2.3C2482.6,948,2482.1,947.9,2481.8,947.6z"/>
<path class="st18" d="M2455.2,923.8c-0.6,1-1,2.1-1.1,3.3l28,20.6c1.1,0.8,2.6,0.6,3.5-0.5c0.2-0.2,0.3-0.5,0.4-0.7
	c1.2-3.8,0.7-10.9-11.7-21c0,0-5.4-1.9-11.6-8.6C2462.5,916.9,2457.5,919.7,2455.2,923.8z"/>
<path class="st18" d="M2485.8,946.5l-30.7-22.7c-0.6,1-1,2.1-1.1,3.3l28,20.6c1.1,0.8,2.6,0.6,3.5-0.5
	C2485.6,947,2485.8,946.8,2485.8,946.5z"/>
<path class="st18" d="M2502,918.2c-3.3,3.6-5.2,5.6-5.2,5.6c-26.4-3.2-44-27.6-44-27.6c1.2-1.3,2.4-2.7,3.6-4
	c0.5-0.6,1.1-1.2,1.6-1.8c52.1-58.8,74.2-119.4,74.2-119.4c-29.2,27-68.3,35.9-131.1,12.6c-2.6-1-5.2-2-7.9-3
	c-9.9-21.5,6.2-46.8,6.2-46.8c2.5,1,5,1.9,7.4,2.8c70.7,25.1,92.7-18.2,130.2-34.1c0,0,61.1,43.9,60.4,46.7
	C2577.7,829.5,2519.7,898.6,2502,918.2z"/>
<path class="st13" d="M2654.3,622.7c0,0-2.8-19.7-26.1-15.7c-11,1.9-21,7-28.1,3.4c-5.1-2.5-12.4-0.4-15.3,9.6
	c-3.5,11.9-9.3,4.2-15.9,9.6s-12.3,13.6-2.9,19.6s2.9,12.2,7.4,21.5s22.1,7.9,27.8,18.5s18.8,11.6,23.4,7.4s1.8-15.3,6.2-19.7
	s13.4-6.1,14.8-16.7S2654.3,622.7,2654.3,622.7z"/>
<path class="st12" d="M2622.4,705.7c17.2,6.8,37,15.1,55,8.4c25.3-9.3,33.8-41.6,31.9-66.9c-0.1-4-0.7-8.8-5.8-8.5
	c-5.8,0.7-4.3,7.6-5.4,11.7c-8.8,44.6-24.3,49.5-63.5,30C2617.9,672.5,2605.9,697.6,2622.4,705.7z"/>
<path class="st18" d="M2694.4,703.4c-8.1,9.9-19.1,15.2-30.6,17.1c-15.4,2.3-31-0.7-44.4-8.7l1.2-10.5l3.6-30.8
	c5.7,2.1,11.2,4.8,16.3,8c8.4,5.2,37.9,21.2,55.7-23l0,0c0.5-1.3,1.1-2.7,1.6-4.2c0.8-2.2,7.4,4.4,11.7,1.3c0,0,0.1,1.5,0.1,4
	c0,0,0,0,0,0C2709.6,665.4,2708,686.7,2694.4,703.4z"/>
<path class="st19" d="M2663.8,720.5L2663.8,720.5c-15.4,2.3-31.1-0.7-44.4-8.7l1.2-10.5l4-1.4
	C2624.6,699.9,2628.6,722.6,2663.8,720.5z"/>
<path class="st12" d="M2607.4,663.7c-5.9-5.1-14.3-6.9-21.6-7.7c-15.7-1.8-30.7,2.5-46,4.8c-18.1,1.8-37.8-1.3-55.6-5.7
	c-5.8-1.6-9.1,7-3.8,9.7c18.6,10,38.2,16.8,59.7,18.3c16.5,1,34-3.6,49.8,2.4c-0.4-0.3-0.8-0.6-1.2-0.9
	C2602.4,696.8,2621,676,2607.4,663.7z"/>
<path class="st18" d="M2612.1,662.2c-3.2,0.9-60.1,32.7-62.1,30.4c-22.5,3.6-50.2-13.1-63.8-24.8c0.5-8.2,3.2-11.4,3.2-11.4
	c20.3,3,43.3,5.7,67.9-2.3C2591.9,642.5,2612.1,662.2,2612.1,662.2z"/>
<path class="st19" d="M2568.6,673.3l-18.2,19.3c-0.1,0-0.3,0-0.4,0.1c-5.8,0.8-11.6,0.5-17.3-0.7c-2.2-0.4-4.4-1-6.6-1.7l0,0
	c-0.7-0.2-1.3-0.4-2-0.6c5.1,0.3,10.3-0.1,15.3-1.4C2547,686.1,2552.9,676.7,2568.6,673.3z"/>
<path class="st18" d="M2492,672.5c0,0-4.2-2.2-5.9-4.6l0,0c0.5-8.2,3.2-11.4,3.2-11.4c0,0,0,0,0,0c0.2,0,4,0,5.9,0.9
	c0,0-2.3,0.7-1.9,2.7c0.5,2,2.2,2.7,0.5,4.5c-1.6,1.8-3.1,1.8-2.5,3.8C2491.9,670.3,2492.7,670.8,2492,672.5z"/>
<path class="st13" d="M2648,621c0,0,10.3-0.2,12.4,10.6s-13.8,24.5-13.8,24.5L2648,621z"/>
<path class="st12" d="M2628.7,664.6l-4.6,6c0.7,3.9-4.6,5.7-6.6,4.3c-3.1-2.1-5.4-10.5-5.4-12.6l6.2-7.7L2628.7,664.6z"/>
<path class="st12" d="M2623.8,644.3c-0.1,0.2-0.2,0.5-0.3,0.7c0.4,0-4.3,7.9-8.1,13.2c3.3,5.9,9.8,8.9,11,9.4
	c4.4-5.3,8-11.3,10.5-17.7C2639.6,641.9,2627.7,636.9,2623.8,644.3z"/>
<path class="st12" d="M2619.6,633.8c-2.9,5.8-5.4,12.9-3.8,19.3l0,0c0.7,2.6,2,5,3.9,6.9c9.5,12.2,34.3,8.4,32.1-8.7
	c-1.1-5.7,2.2-11.8,1.8-17c0.2-8.7-8.8-14.8-16.9-13.5C2629.2,622,2623.5,626.8,2619.6,633.8z"/>
<path class="st18" d="M2597.6,749.1c-35.4-7.8-60.4-46.7-60.4-46.7s7.4-13.9,13.2-18.5c12-9.5,45.9-31.1,61.7-21.6
	c0,0-0.1,12.6,8.9,13.6c3.5,0.4,3.2-5.3,3.2-5.3c2.6,4.1,4.4,19,4.1,24.9C2626.5,738.3,2611.4,730.6,2597.6,749.1z"/>
<path class="st12" d="M2619.6,633.8c-2.9,5.8-5.4,12.9-3.8,19.3l0,0c-0.2-4.5,3-11.8,3-11.8l3.1-2c22.3,7.3,31.3-8.4,31.3-8.4
	C2648.3,614.2,2625.8,620.1,2619.6,633.8z"/>
<path class="st13" d="M2652.4,628.2c0,0-9.2,15.4-29.6,9.5l-3.5-7.4C2621.7,615.1,2644,606.3,2652.4,628.2z"/>
<path class="st12" d="M2614.3,634c-3.1,6.7,5.4,10.5,8.4,3.7C2625.8,631,2617.3,627.2,2614.3,634z"/>
<path class="st20" d="M2615.4,636.6c-0.3-2.2,2.1-4.4,3-4.4c1.9-0.1,3.6,2,3,2.4c-0.8,0.3-1.1-1.8-2.9-1.7
	C2616.7,632.9,2616.4,636.6,2615.4,636.6z"/>
<path class="st20" d="M2618.4,638.2c-0.6-0.5,0.8-2.8-1.4-4.8c-0.2-0.1-0.2-0.4,0-0.5c0,0,0,0,0,0
	C2619.6,632.8,2619.5,639.1,2618.4,638.2z"/>
<path class="st18" d="M2605.5,657.3c0,0-3.7,3.3-1,7.4s-1.7,7.3,2.6,10.5s7.8-0.6,10.4,4.6c2.8,5.7,8,3.2,8.4,0s4.9-2,5.9-6.2
	c0,0-3.4-3.3-7.5-3.1c0,0-3.1,3.4-6.1,1.9c-1.9-0.9-4.8-6.6-5.9-10.2C2612.1,662.2,2609.6,658.1,2605.5,657.3z"/>
<path class="st19" d="M2539.4,698.6c0,0,26,37.3,60.3,47.9c0,0,0.5,3.1-2.8,5.7c0,0-30.3-1.6-63.6-48
	C2533.2,704.3,2535.4,700,2539.4,698.6z"/>
<path class="st19" d="M2574,740c-3,3.7-8.4,4.2-12.1,1.2c-3.7-3-4.2-8.4-1.2-12.1c3-3.7,8.4-4.2,12.1-1.2c0,0,0,0,0,0
	C2576.5,730.9,2577,736.3,2574,740z"/>
<path class="st12" d="M2476.7,644.7c-1.6,1.3,2,4.5,2.2,6.3c-2.1-0.6-4.2-1.4-6.2-2.5c-2.9-2.5-5.8-5.1-8.4-7.8
	c-0.3-0.4-0.8-0.6-1.3-0.6c-3.9-0.3,6,9.5,6.8,10.7l0,0c-3.5-1.9-7-4-10.3-6.3c-0.5-0.3-1.1-0.5-1.6-0.3c-3.4,0.9,9.4,8.9,10.5,9.8
	l0,0c-3.6-1.2-7.1-2.8-10.4-4.8c-0.5-0.3-1.1-0.4-1.7-0.2c-3.4,1.2,10.2,8.3,11.7,8.8l0,0c-3-0.6-5.9-1.4-8.7-2.4
	c-0.5-0.2-1-0.2-1.5,0c-3.5,1.5,9.4,6,10.8,6.3c0.9,0.7,6.6,2.5,13.8,3.1c2.4,0.2,4.5-6.1,3.5-8.2c-0.8-1.9-1.8-3.7-2.9-5.3
	C2482,649.5,2479.1,644.1,2476.7,644.7z"/>
<path class="st19" d="M2401.3,783.5c-2.6-1-5.2-2-7.9-3c-9.9-21.5,6.2-46.8,6.2-46.8c2.5,1,5,1.9,7.4,2.8
	C2410.6,737.8,2391.8,758.6,2401.3,783.5z"/>
<path class="st19" d="M2502,918.2c-3.3,3.6-5.2,5.6-5.2,5.6c-26.4-3.2-44-27.6-44-27.6c1.8-1.9,3.5-3.9,5.2-5.8l0,0
	C2458.1,890.3,2479.9,914.2,2502,918.2z"/>
<path class="st19" d="M2460.5,898.3l-4-6.1c0.5-0.6,1.1-1.2,1.6-1.8c52.1-58.8,74.2-119.4,74.2-119.4s1.1,10.9-5.5,30.3
	S2474.8,886.6,2460.5,898.3z"/>
<g id="_4">
	<polygon class="st21" points="2932.2,715.3 2895,816.4 3278.4,1080 	"/>
	<polygon class="st21" points="2863.9,851.8 2865.3,933.7 3278.4,1080 	"/>
	<polygon class="st22" points="2857,746.7 3278.4,1080 2737.8,809.2 	"/>
	<polygon class="st22" points="3008.3,667.3 2915.3,716.1 3278.4,1080 	"/>
</g>
<path class="st23" d="M1635.7,53.6c0.8,0,1.5-0.7,1.4-1.6c0-0.8-0.7-1.4-1.4-1.4c-0.8,0-1.5,0.7-1.4,1.6
	C1634.3,53,1634.9,53.6,1635.7,53.6z"/>
</svg>
