<svg width="16" height="20" viewBox="0 0 16 20" fill="none" xmlns="http://www.w3.org/2000/svg">
<path d="M11.1568 12.8021L3.5 10.9451L3.87151 9.4137L11.5284 11.2707L11.1568 12.8021Z" fill="#0000EE"/>
<path d="M11.6702 10.9702L4.6543 7.38517L5.37123 5.98181L12.3871 9.56699L11.6702 10.9702Z" fill="#0000EE"/>
<path d="M12.7516 9.07241L6.81836 3.88851L7.85496 2.70203L13.7884 7.88558L12.7516 9.07223" fill="#0000EE"/>
<path d="M14.3838 7.40399L9.95898 0.885143L11.2631 0L15.6877 6.5192L14.384 7.40417" fill="#0000EE"/>
<path d="M11.0342 14.7175L3.16699 14.288L3.25286 12.7145L11.1201 13.144L11.0342 14.7175Z" fill="#0000EE"/>
<path d="M12.6658 18.4241V11.8959H14.2402L14.2413 20H0L0.000352647 11.8892H1.57615V18.4241H12.6658Z" fill="#0000EE"/>
<path d="M3.14551 15.2786H11.0779V16.8544H3.14551V15.2787V15.2786Z" fill="#0000EE"/>
</svg>
