<svg width="60" height="68" viewBox="0 0 60 68" fill="none" xmlns="http://www.w3.org/2000/svg">
<path d="M30 0C13.425 0 0 6.7125 0 15C0 23.2875 13.425 30 30 30C46.575 30 60 23.2875 60 15C60 6.7125 46.575 0 30 0ZM0 22.5V33.75C0 42.0375 13.425 48.75 30 48.75C46.575 48.75 60 42.0375 60 33.75V22.5C60 30.7875 46.575 37.5 30 37.5C13.425 37.5 0 30.7875 0 22.5ZM0 41.25V52.5C0 60.7875 13.425 67.5 30 67.5C46.575 67.5 60 60.7875 60 52.5V41.25C60 49.5375 46.575 56.25 30 56.25C13.425 56.25 0 49.5375 0 41.25Z" fill="black"/>
</svg>
