<svg width="60" height="64" viewBox="0 0 60 64" fill="none" xmlns="http://www.w3.org/2000/svg">
<path d="M38.7147 45.6114V36.4891H47.837V30.4076L60 41.0503L47.837 51.6929V45.6114H38.7147ZM44.7962 48.6522V57.7745H35.6739V63.856L23.5109 53.2133L35.6739 42.5707V48.6522H44.7962ZM29.5924 18.2446C22.8723 18.2446 17.4293 23.7179 17.4293 30.4076C17.4293 36.2155 21.5344 41.1719 27.1902 42.3274L41.7554 29.9819C41.5426 23.4443 36.1604 18.2446 29.5924 18.2446ZM29.5924 36.4891C26.2475 36.4891 23.5109 33.7829 23.5109 30.4076C23.5109 27.0324 26.2475 24.3261 29.5924 24.3261C32.9372 24.3261 35.6739 27.0628 35.6739 30.4076C35.6739 33.7525 32.9676 36.4891 29.5924 36.4891ZM58.9661 20.4643L52.8846 9.94329C52.5197 9.27432 51.7291 9.00065 51.0297 9.27432L43.4583 12.3151C41.9075 11.0684 40.235 10.0649 38.3194 9.27432L37.1943 1.27712C37.0727 0.547337 36.4341 0 35.6739 0H23.5109C22.7507 0 22.1121 0.547337 21.9905 1.27712L20.8654 9.33514C18.9497 10.1257 17.3077 11.1292 15.7265 12.3759L8.30705 9.27432C7.60767 9.00065 6.78667 9.27432 6.45218 9.94329L0.370661 20.4643C-0.0246381 21.1029 0.1274 21.9543 0.705144 22.4104L6.99952 27.3669L6.78667 30.4076L6.99952 33.4484L0.583514 38.4048C-0.0246383 38.8609 -0.176677 39.7123 0.218622 40.3509L6.30015 50.8719C6.63463 51.6929 7.51645 52.0274 8.30705 51.6929L15.909 48.6522C16.6387 49.2299 17.4293 49.7773 18.2199 50.2638L23.2372 46.0067C20.8958 45.0033 18.8281 43.5133 17.1557 41.5976L9.82743 44.6384L7.48604 40.6854L13.7804 35.881C12.5641 32.3233 12.5641 28.4919 13.7804 24.9342L7.36441 20.2211L9.64498 16.2681L16.9732 19.3088C19.345 16.5722 22.5378 14.6565 26.0955 13.8963L27.3118 6.08152H31.873L32.998 14.0483C36.5557 14.7781 39.7485 16.7242 42.1203 19.4305L49.4486 16.3897L51.7291 20.3427L45.4043 24.9342C45.678 25.7248 45.8909 26.5458 46.0125 27.3669H52.094L58.4796 22.4104C59.1486 21.9847 59.331 21.1333 58.9661 20.4643ZM29.5924 18.2446C22.8723 18.2446 17.4293 23.7179 17.4293 30.4076C17.4293 36.2155 21.5344 41.1719 27.1902 42.3274L41.7554 29.9819C41.5426 23.4443 36.1604 18.2446 29.5924 18.2446ZM29.5924 36.4891C26.2475 36.4891 23.5109 33.7829 23.5109 30.4076C23.5109 27.0324 26.2475 24.3261 29.5924 24.3261C32.9372 24.3261 35.6739 27.0628 35.6739 30.4076C35.6739 33.7525 32.9676 36.4891 29.5924 36.4891ZM29.5924 18.2446C22.8723 18.2446 17.4293 23.7179 17.4293 30.4076C17.4293 36.2155 21.5344 41.1719 27.1902 42.3274L41.7554 29.9819C41.5426 23.4443 36.1604 18.2446 29.5924 18.2446ZM29.5924 36.4891C26.2475 36.4891 23.5109 33.7829 23.5109 30.4076C23.5109 27.0324 26.2475 24.3261 29.5924 24.3261C32.9372 24.3261 35.6739 27.0628 35.6739 30.4076C35.6739 33.7525 32.9676 36.4891 29.5924 36.4891Z" fill="black"/>
</svg>
