<svg width="60" height="61" viewBox="0 0 60 61" fill="none" xmlns="http://www.w3.org/2000/svg">
<path d="M54.752 32.0057C54.3494 32.0057 53.9468 32.1783 53.6305 32.4946L50.7548 35.3702L56.6499 41.2653L59.5255 38.3896C60.1582 37.7858 60.1582 36.7793 59.5255 36.1754L55.8447 32.4946C55.5284 32.1783 55.1546 32.0057 54.752 32.0057ZM49.087 37.0381L31.6319 54.4644V60.3882H37.5557L54.982 42.9331L49.087 37.0381ZM48.8857 29.1014L28.4975 49.4608C27.3185 48.7419 25.8807 48.3106 24.4428 48.3106C20.1294 48.3106 16.6786 51.7613 16.6786 56.0748V60.3882H5.75126C2.58807 60.3882 0 57.8289 0 54.6369V43.7096H4.31344C8.62689 43.7096 12.0776 40.2588 12.0776 35.9454C12.0776 31.6319 8.62689 28.1812 4.31344 28.1812H0V17.2538C0 14.0906 2.58807 11.5025 5.75126 11.5025H17.2538V7.18907C17.2538 3.2207 20.4745 0 24.4428 0C28.4112 0 31.6319 3.2207 31.6319 7.18907V11.5025H43.1344C46.2976 11.5025 48.8857 14.0618 48.8857 17.2538V29.1014Z" fill="black"/>
</svg>
