<svg width="68" height="54" viewBox="0 0 68 54" fill="none" xmlns="http://www.w3.org/2000/svg">
<path d="M15.6667 20.3333C18.3334 20.3333 20.6667 17.9999 20.6667 15.3333C20.6667 12.6666 18.3334 10.3333 15.6667 10.3333C13.0001 10.3333 10.6667 12.6666 10.6667 15.3333C10.6667 17.9999 13.0001 20.3333 15.6667 20.3333ZM24.0001 6.99992L47.3334 30.3332L30.6667 46.9999L7.33342 23.6666V6.99992H24.0001ZM24.0001 0.333252H7.33342C3.66675 0.333252 0.666748 3.33325 0.666748 6.99992V23.6666C0.666748 25.6666 1.33341 27.3332 2.66675 28.3332L26.0001 51.6666C27.0001 52.9999 28.6667 53.6666 30.6667 53.6666C32.6667 53.6666 34.3334 52.9999 35.3334 51.6666L52.0001 34.9999C53.3334 33.6666 54.0001 31.9999 54.0001 30.3332C54.0001 28.3333 53.3334 26.6666 52.0001 25.6666L28.6667 2.33325C27.6667 0.999918 26.0001 0.333252 24.0001 0.333252ZM39.0001 5.99992L42.3334 2.66658L65.3334 25.6666C66.6667 26.9999 67.3334 28.6666 67.3334 30.3332C67.3334 31.9999 66.6667 33.9999 65.3334 34.9999L47.3334 52.9999L44.0001 49.6666L63.0001 30.3332L39.0001 5.99992Z" fill="black"/>
</svg>
