<svg width="65" height="61" viewBox="0 0 65 61" fill="none" xmlns="http://www.w3.org/2000/svg">
<path d="M63.0334 6.43337L58.5668 1.9667C57.3334 0.666699 55.1667 0.666699 53.8667 1.9667L24.0001 31.8334L33.1667 41L63.0334 11.1334C64.3334 9.83337 64.3334 7.6667 63.0334 6.43337ZM17.3334 37.6667C14.6813 37.6667 12.1377 38.7203 10.2623 40.5956C8.38698 42.471 7.33342 45.0145 7.33342 47.6667C7.33342 52.0334 3.46675 54.3334 0.666748 54.3334C3.73341 58.4 9.00008 61 14.0001 61C17.5363 61 20.9277 59.5953 23.4282 57.0948C25.9287 54.5943 27.3334 51.2029 27.3334 47.6667C27.3334 45.0145 26.2798 42.471 24.4045 40.5956C22.5291 38.7203 19.9856 37.6667 17.3334 37.6667Z" fill="black"/>
</svg>
