<svg width="76" height="64" viewBox="0 0 76 64" fill="none" xmlns="http://www.w3.org/2000/svg">
<path d="M22.1667 41.1667L36.4167 22.1667L47.5 36.4167L55.4167 26.9167L66.5 41.1667H22.1667ZM69.6667 6.33333H44.3333L38 0H19C17.3203 0 15.7094 0.66726 14.5217 1.85499C13.3339 3.04272 12.6667 4.65363 12.6667 6.33333V44.3333C12.6667 46.013 13.3339 47.6239 14.5217 48.8117C15.7094 49.9994 17.3203 50.6667 19 50.6667H69.6667C71.3464 50.6667 72.9573 49.9994 74.145 48.8117C75.3327 47.6239 76 46.013 76 44.3333V12.6667C76 10.987 75.3327 9.37605 74.145 8.18832C72.9573 7.00059 71.3464 6.33333 69.6667 6.33333ZM6.33333 12.6667H0V28.5V57C0 58.6797 0.66726 60.2906 1.85499 61.4783C3.04272 62.6661 4.65363 63.3333 6.33333 63.3333H63.3333V57H6.33333V12.6667Z" fill="black"/>
</svg>
