<svg width="62" height="65" viewBox="0 0 62 65" fill="none" xmlns="http://www.w3.org/2000/svg">
<path d="M49.2666 31.0667C43.3999 25.2 33.8999 25.2333 28.0666 31.1C22.1999 36.9667 22.1999 46.4667 28.0666 52.3C33.0332 57.2333 40.6999 58.1 46.6332 54.4L56.9999 64.6333L61.6332 60L51.3332 49.6333C55.0999 43.7333 54.2333 36 49.2666 31.0667ZM44.5666 47.5667C41.2999 50.8333 36.0332 50.8 32.7666 47.5667C29.5332 44.3 29.5333 39.0333 32.7999 35.7667C36.0332 32.5333 41.2999 32.5333 44.5666 35.7667C47.7999 39.0333 47.7999 44.3 44.5666 47.5667ZM23.3333 57C21.1666 54.8 19.4666 52.1667 18.3999 49.2667C7.89992 47.5 0.333252 42.5333 0.333252 36.6667V46.6667C0.333252 54.0333 12.2666 60 26.9999 60C25.6666 59.1333 24.4333 58.1333 23.3333 57ZM0.333252 20V30C0.333252 35.6 7.23325 40.4 16.9999 42.3333C16.9999 42.1 16.9999 41.9 16.9999 41.6667C16.9999 38.5667 17.6666 35.5 18.9333 32.7C8.13325 31 0.333252 25.9667 0.333252 20ZM26.9999 0C12.2666 0 0.333252 5.96667 0.333252 13.3333C0.333252 20 10.3333 25.6 23.1666 26.6667H23.3333C27.3333 22.4667 32.8666 20 38.6666 20C41.6999 20 44.6999 20.6333 47.4666 21.8667C50.8999 20.3 53.2332 17.0667 53.6666 13.3333C53.6666 5.96667 41.7332 0 26.9999 0Z" fill="black"/>
</svg>
