<svg width="21" height="20" viewBox="0 0 21 20" fill="none" xmlns="http://www.w3.org/2000/svg">
<g clip-path="url(#clip0)">
<path d="M10.7409 0C5.13181 0 0.588867 4.54294 0.588867 10.1521C0.588867 14.9231 3.86258 18.8828 8.27938 19.9991C8.2284 19.8721 8.20335 19.6941 8.20335 19.517V17.7907H6.93412C6.24897 17.7907 5.61392 17.4866 5.33485 16.9276C5.0048 16.3185 4.95382 15.3793 4.1166 14.7952C3.86258 14.5922 4.06563 14.3891 4.3447 14.4142C4.87779 14.5663 5.30893 14.9222 5.71501 15.4545C6.12109 15.9876 6.29908 16.1146 7.06027 16.1146C7.41537 16.1146 7.97352 16.0895 8.48156 16.0126C8.76063 15.3015 9.24275 14.6674 9.82681 14.3632C6.42609 13.9571 4.80176 12.2818 4.80176 9.99741C4.80176 9.00726 5.2329 8.06808 5.94397 7.25592C5.71588 6.46881 5.41088 4.84448 6.04593 4.2103C7.56917 4.2103 8.48242 5.20045 8.71052 5.4536C9.47171 5.19959 10.3098 5.04752 11.1721 5.04752C12.0603 5.04752 12.8724 5.19959 13.6336 5.4536C13.8617 5.19959 14.7758 4.2103 16.2982 4.2103C16.9073 4.81942 16.6283 6.46881 16.3742 7.25592C17.0853 8.04303 17.4914 9.00726 17.4914 9.99741C17.4914 12.2818 15.8921 13.9571 12.5173 14.3123C13.4565 14.7944 14.1166 16.1647 14.1166 17.1799V19.492C14.1166 19.568 14.0915 19.644 14.0915 19.7201C18.0504 18.3497 20.893 14.5939 20.893 10.1521C20.893 4.54294 16.3501 0 10.7409 0Z" fill="#0000EE"/>
</g>
<defs>
<clipPath id="clip0">
<rect width="20.3041" height="20" fill="white" transform="translate(0.588867)"/>
</clipPath>
</defs>
</svg>
