<svg width="17" height="16" viewBox="0 0 17 16" fill="none" xmlns="http://www.w3.org/2000/svg">
<path fill-rule="evenodd" clip-rule="evenodd" d="M8.69747 0C4.16567 0 0.495117 3.67055 0.495117 8.20235C0.495117 11.8319 2.84304 14.8975 6.10347 15.9843C6.51359 16.0561 6.66739 15.81 6.66739 15.5947C6.66739 15.3999 6.65713 14.754 6.65713 14.067C4.59629 14.4464 4.06314 13.5646 3.89909 13.1033C3.80682 12.8674 3.40695 12.1395 3.05835 11.9447C2.77127 11.7909 2.36115 11.4115 3.0481 11.4013C3.69403 11.391 4.15542 11.9959 4.30921 12.242C5.04742 13.4826 6.22651 13.134 6.69814 12.9187C6.76992 12.3855 6.98523 12.0267 7.22104 11.8216C5.39602 11.6166 3.48898 10.9091 3.48898 7.77173C3.48898 6.87972 3.80682 6.14151 4.32972 5.56735C4.24769 5.36229 3.96061 4.52155 4.41174 3.39372C4.41174 3.39372 5.09869 3.17841 6.66739 4.23446C7.32357 4.04991 8.02077 3.95763 8.71797 3.95763C9.41517 3.95763 10.1124 4.04991 10.7686 4.23446C12.3373 3.16816 13.0242 3.39372 13.0242 3.39372C13.4753 4.52155 13.1883 5.36229 13.1062 5.56735C13.6291 6.14151 13.947 6.86947 13.947 7.77173C13.947 10.9194 12.0297 11.6166 10.2046 11.8216C10.502 12.078 10.7583 12.5701 10.7583 13.3391C10.7583 14.4361 10.7481 15.3179 10.7481 15.5947C10.7481 15.81 10.9018 16.0664 11.312 15.9843C12.9403 15.4346 14.3552 14.3881 15.3576 12.9921C16.36 11.5961 16.8994 9.92095 16.8998 8.20235C16.8998 3.67055 13.2293 0 8.69747 0Z" fill="#777777"/>
</svg>
