<svg width="41" height="28" viewBox="0 0 41 28" fill="none" xmlns="http://www.w3.org/2000/svg">
<path fill-rule="evenodd" clip-rule="evenodd" d="M36.4535 0.846154C38.1715 1.30769 39.5304 2.66667 39.992 4.38462C40.8381 7.51282 40.8638 14 40.8638 14C40.8638 14 40.8638 20.5128 40.0176 23.6154C39.5561 25.3333 38.1971 26.6923 36.4791 27.1538C33.3766 28 20.8894 28 20.8894 28C20.8894 28 8.40222 28 5.29965 27.1538C3.58171 26.6923 2.22273 25.3333 1.76119 23.6154C0.915039 20.4872 0.915039 14 0.915039 14C0.915039 14 0.915039 7.51282 1.73555 4.41026C2.19709 2.69231 3.55606 1.33333 5.27401 0.871795C8.37658 0.025641 20.8638 0 20.8638 0C20.8638 0 33.3509 0 36.4535 0.846154ZM27.2482 13.9999L16.8893 19.9999V7.99987L27.2482 13.9999Z" fill="#333333"/>
</svg>
