<svg width="17" height="16" viewBox="0 0 17 16" fill="none" xmlns="http://www.w3.org/2000/svg">
<g clip-path="url(#clip0)">
<path fill-rule="evenodd" clip-rule="evenodd" d="M16.4954 14.4C16.4954 15.2828 15.7781 16 14.9046 16H2.27928C1.40572 16 0.688477 15.2828 0.688477 14.4V1.6C0.688477 0.717241 1.40572 0 2.27928 0H14.9046C15.7873 0 16.4954 0.717241 16.4954 1.6V14.4ZM5.82856 3.90806C5.82856 4.49656 5.39637 4.97472 4.67913 4.97472C4.00787 4.97472 3.57568 4.49656 3.57568 3.90806C3.57568 3.31036 4.02626 2.85059 4.71591 2.85059C5.39637 2.85059 5.81936 3.31036 5.82856 3.90806ZM3.63086 12.6529V5.81151H5.75499V12.6529H3.63086ZM6.97797 5.82072C7.00556 6.43682 7.03314 7.14486 7.03314 8.00004V12.6621H9.15728V8.71728C9.15728 8.52418 9.17567 8.32188 9.23085 8.18394C9.38717 7.78854 9.73659 7.38394 10.3251 7.38394C11.0975 7.38394 11.401 7.98165 11.401 8.86441V12.6621H13.5251V8.61613C13.5251 6.60233 12.4768 5.6644 11.0791 5.6644C9.9297 5.6644 9.24004 6.31728 8.96418 6.76785H8.9274L8.82625 5.82072H6.97797Z" fill="#777777"/>
</g>
<defs>
<clipPath id="clip0">
<rect width="15.8069" height="16" fill="white" transform="translate(0.688477)"/>
</clipPath>
</defs>
</svg>
