<svg width="60" height="48" viewBox="0 0 60 48" fill="none" xmlns="http://www.w3.org/2000/svg">
<path d="M46.8844 47.4874C42.1608 47.4874 38.4925 45.8794 35.8794 42.6633C33.3668 39.3467 32.1106 34.9749 32.1106 29.5477C32.1106 23.1156 34.2211 17.2362 38.4422 11.9096C42.6633 6.58292 49.8492 2.61307 60 0V8.29146C55.7789 9.8995 52.5628 11.407 50.3518 12.8141C48.2412 14.2211 47.1859 16.3819 47.1859 19.2965C47.1859 20.7035 47.7387 21.809 48.8442 22.6131C49.9497 23.3166 51.206 24.1206 52.6131 25.0251C54.1206 25.9296 55.4271 27.2362 56.5327 28.9447C57.6382 30.6533 58.191 33.1156 58.191 36.3317C58.191 39.9497 57.0854 42.7136 54.8744 44.6231C52.7638 46.5327 50.1005 47.4874 46.8844 47.4874ZM14.7739 47.4874C10.1508 47.4874 6.53266 45.8794 3.9196 42.6633C1.30653 39.3467 0 34.9749 0 29.5477C0 23.1156 2.11055 17.2362 6.33166 11.9096C10.5528 6.58292 17.7387 2.61307 27.8894 0V8.29146C23.7688 9.8995 20.603 11.407 18.392 12.8141C16.1809 14.2211 15.0754 16.3819 15.0754 19.2965C15.0754 20.7035 15.6281 21.809 16.7337 22.6131C17.8392 23.3166 19.0955 24.1206 20.5025 25.0251C22.0101 25.9296 23.3166 27.2362 24.4221 28.9447C25.5276 30.6533 26.0804 33.1156 26.0804 36.3317C26.0804 39.9497 24.9749 42.7136 22.7638 44.6231C20.6533 46.5327 17.99 47.4874 14.7739 47.4874Z" fill="#ED5248"/>
</svg>
